<?xml version="1.0" encoding="UTF-8"?>
<svg version="1.1" xmlns="http://www.w3.org/2000/svg" width="280" height="280">
<path d="M0 0 C4.43217667 4.53770468 4.84851718 8.10060978 4.79296875 14.2109375 C4.625 16.6875 4.625 16.6875 3.78125 19.83203125 C3.54956878 25.54876532 6.09232299 29.16582176 8.9375 34 C9.48712402 34.9684082 10.03674805 35.93681641 10.60302734 36.93457031 C11.72858486 38.9164101 12.8613989 40.89414638 14.00146484 42.86767578 C16.30188213 46.86313738 18.52377897 50.9004212 20.75 54.9375 C21.55125453 56.37806547 22.35333809 57.81817013 23.15625 59.2578125 C25.85941982 64.10645933 28.5548029 68.95941815 31.25 73.8125 C32.09632776 75.33595217 32.94267934 76.85939111 33.7890625 78.3828125 C34.39492187 79.47335938 35.00078125 80.56390625 35.625 81.6875 C36.30844482 81.67444824 36.99188965 81.66139648 37.69604492 81.64794922 C38.59427979 81.63779785 39.49251465 81.62764648 40.41796875 81.6171875 C41.30766357 81.60413574 42.1973584 81.59108398 43.11401367 81.57763672 C47.30952627 81.76120314 50.13411737 83.16825819 53.0625 86.15234375 C57.21858642 90.9814328 57.98307886 93.86542773 57.90234375 100.08203125 C57.33927676 105.37168871 54.90531306 108.46964123 51.0625 112.125 C45.67633635 114.57325621 40.18359499 114.7930194 34.5 113.02734375 C30.62246114 111.09693108 28.17883876 108.47842284 26.27734375 104.68359375 C24.42717635 99.02230307 25.28084272 94.03217861 27.625 88.6875 C14.54710276 85.86348106 1.63870966 85.37758705 -11.6875 85.375 C-12.49689026 85.37177734 -13.30628052 85.36855469 -14.14019775 85.36523438 C-26.44692997 85.33537499 -38.2960569 86.16816546 -50.375 88.6875 C-50.045 89.326875 -49.715 89.96625 -49.375 90.625 C-47.7779211 95.51605413 -47.32376925 100.08423759 -49.28515625 104.94140625 C-51.86023896 109.43745099 -54.27794123 112.14876528 -59.375 113.6875 C-64.27013442 114.32775765 -68.76231943 114.36401482 -73.25 112.125 C-77.63199993 108.70704005 -79.91767787 105.66245119 -80.75390625 100.22265625 C-81.01875104 94.54130842 -80.24354712 91.07882376 -76.375 86.6875 C-71.02725241 81.86148389 -67.31146206 81.46729486 -60.375 81.6875 C-59.715 82.0175 -59.055 82.3475 -58.375 82.6875 C-58.10042969 81.96852539 -57.82585937 81.24955078 -57.54296875 80.50878906 C-56.39997285 77.74782321 -55.10714282 75.17515893 -53.6875 72.546875 C-53.15842041 71.56678467 -52.62934082 70.58669434 -52.08422852 69.5769043 C-51.52018311 68.54090088 -50.9561377 67.50489746 -50.375 66.4375 C-49.50476196 64.83418823 -49.50476196 64.83418823 -48.61694336 63.19848633 C-45.159328 56.86134571 -41.62254707 50.58252817 -37.9375 44.375 C-37.53345947 43.69356934 -37.12941895 43.01213867 -36.71313477 42.31005859 C-35.95121472 41.02640789 -35.18910058 39.74287236 -34.42675781 38.45947266 C-28.57671595 29.1842257 -28.57671595 29.1842257 -26.375 18.6875 C-26.87 17.2025 -26.87 17.2025 -27.375 15.6875 C-27.7434431 10.06874276 -27.56690228 6.53038621 -24.375 1.6875 C-17.46510626 -5.41981927 -7.81318089 -5.99263389 0 0 Z M-17.8125 5.3125 C-19.74731132 8.2534132 -20.30309193 10.16400456 -20.375 13.6875 C-18.77088152 17.21656067 -17.63340638 18.51522908 -14.375 20.6875 C-10.96000409 21.35457548 -10.96000409 21.35457548 -7.375 20.6875 C-4.20168938 18.26287156 -4.20168938 18.26287156 -2.375 14.6875 C-2.30682427 10.73330795 -2.8084777 8.57127478 -4.9375 5.25 C-9.222358 2.50329615 -13.57181957 2.48537971 -17.8125 5.3125 Z M-19.375 26.6875 C-19.69549316 27.28361084 -20.01598633 27.87972168 -20.34619141 28.49389648 C-27.39741109 41.59489804 -34.53154932 54.6367513 -41.87939453 67.57397461 C-42.71833252 69.05909546 -42.71833252 69.05909546 -43.57421875 70.57421875 C-44.06752686 71.44264404 -44.56083496 72.31106934 -45.0690918 73.20581055 C-46.35554801 75.65053431 -47.3980703 78.10538721 -48.375 80.6875 C-47.78412598 80.59662109 -47.19325195 80.50574219 -46.58447266 80.41210938 C-25.63167171 77.27702694 -4.92403985 76.36729766 16.11328125 79.25 C19.00859876 79.61070696 21.71544643 79.77754421 24.625 79.6875 C23.32863599 75.44891921 21.70937523 71.75710873 19.53515625 67.8984375 C18.920354 66.80055908 18.30555176 65.70268066 17.67211914 64.5715332 C17.01062906 63.4018274 16.34908837 62.23215021 15.6875 61.0625 C15.01301558 59.86124385 14.33911087 58.65966202 13.66577148 57.45776367 C12.64491591 55.63579298 11.62367585 53.81405008 10.60047913 51.99339294 C7.42805881 46.34798394 4.30163255 40.67775806 1.1875 35 C0.72158447 34.15163574 0.25566895 33.30327148 -0.22436523 32.42919922 C-1.27515976 30.51561947 -2.32518266 28.60161602 -3.375 26.6875 C-3.94347656 26.77128906 -4.51195312 26.85507813 -5.09765625 26.94140625 C-10.14135545 27.60660197 -14.37794069 27.6443837 -19.375 26.6875 Z M-73.375 94.6875 C-74.1196324 98.65887281 -73.74766878 100.12849683 -71.5 103.5 C-68.99355093 106.08016816 -68.12038327 106.60467964 -64.5625 107 C-60.52288144 106.60395896 -59.07770845 105.69908942 -56.375 102.6875 C-55.03839855 99.33157137 -55.03839855 99.33157137 -55.375 95.6875 C-57.22103962 92.41226842 -58.55661233 90.19972188 -62.31640625 89.140625 C-67.5648235 88.78209934 -70.30689616 90.27710073 -73.375 94.6875 Z M35.1875 91.375 C33.42545513 93.98282641 32.77829615 95.54492887 32.625 98.6875 C33.40137552 101.65184289 34.24716561 103.29617152 36.375 105.5 C39.40394929 107.09861212 41.23902051 107.17121136 44.625 106.6875 C47.32490662 104.88756226 49.1668865 103.603727 50.625 100.6875 C51.15481019 96.71392355 50.94381474 95.14579619 48.625 91.8125 C44.13828821 88.63441248 39.97500743 88.06057178 35.1875 91.375 Z " fill="#0C98C1" transform="translate(151.375,58.3125)"/>
<path d="M0 0 C1.4540625 0.0309375 1.4540625 0.0309375 2.9375 0.0625 C5.43599261 6.17645838 7.83485469 12.32866927 10.1875 18.5 C10.45771973 19.19802734 10.72793945 19.89605469 11.00634766 20.61523438 C12.12643705 23.57428727 12.9375 25.87059822 12.9375 29.0625 C10.9575 29.0625 8.9775 29.0625 6.9375 29.0625 C6.2775 27.4125 5.6175 25.7625 4.9375 24.0625 C1.6375 24.0625 -1.6625 24.0625 -5.0625 24.0625 C-6.0525 26.5375 -6.0525 26.5375 -7.0625 29.0625 C-9.0425 29.0625 -11.0225 29.0625 -13.0625 29.0625 C-12.39769127 22.96495741 -10.17939573 17.46043727 -8.0625 11.75 C-7.50949219 10.22922852 -7.50949219 10.22922852 -6.9453125 8.67773438 C-3.78856207 0.07731759 -3.78856207 0.07731759 0 0 Z M-1.0625 9.0625 C-1.7225 12.0325 -2.3825 15.0025 -3.0625 18.0625 C-1.0825 18.0625 0.8975 18.0625 2.9375 18.0625 C1.9475 15.0925 0.9575 12.1225 -0.0625 9.0625 C-0.3925 9.0625 -0.7225 9.0625 -1.0625 9.0625 Z " fill="#0A99C2" transform="translate(57.0625,190.9375)"/>
<path d="M0 0 C1.13953125 -0.02578125 2.2790625 -0.0515625 3.453125 -0.078125 C7.04899943 0.27975824 8.88377676 1.09510223 11.75 3.25 C12.96977329 5.68954658 12.95153813 7.40305849 13 10.125 C13.02578125 10.98867187 13.0515625 11.85234375 13.078125 12.7421875 C12.6868733 15.73246832 11.7764278 17.05470321 9.75 19.25 C6.26418731 20.74391972 2.48433823 20.3218142 -1.25 20.25 C-1.25 23.22 -1.25 26.19 -1.25 29.25 C-3.23 29.25 -5.21 29.25 -7.25 29.25 C-7.27465881 25.28069011 -7.29284023 21.31140966 -7.30493164 17.34204102 C-7.30997057 15.99079614 -7.31680177 14.63955674 -7.32543945 13.28833008 C-7.33752419 11.34979566 -7.34269828 9.411222 -7.34765625 7.47265625 C-7.35289307 6.30484619 -7.35812988 5.13703613 -7.36352539 3.93383789 C-7.1523991 -1.05736927 -4.39763861 0.05916106 0 0 Z M-1.25 6.25 C-1.25 8.89 -1.25 11.53 -1.25 14.25 C1.39 14.25 4.03 14.25 6.75 14.25 C6.75 11.61 6.75 8.97 6.75 6.25 C4.11 6.25 1.47 6.25 -1.25 6.25 Z " fill="#0897C3" transform="translate(106.25,190.75)"/>
<path d="M0 0 C1.13953125 -0.02578125 2.2790625 -0.0515625 3.453125 -0.078125 C7.06587351 0.28143765 8.90475667 1.02780266 11.75 3.25 C13.38106299 8.14318896 13.50282177 12.48086885 11.5 17.1875 C9.47156322 19.57815764 8.83068572 19.99327619 5.75 20.25 C3.41699067 20.28888349 1.08290199 20.2948635 -1.25 20.25 C-1.25 23.22 -1.25 26.19 -1.25 29.25 C-3.23 29.25 -5.21 29.25 -7.25 29.25 C-7.27465881 25.28069011 -7.29284023 21.31140966 -7.30493164 17.34204102 C-7.30997057 15.99079614 -7.31680177 14.63955674 -7.32543945 13.28833008 C-7.33752419 11.34979566 -7.34269828 9.411222 -7.34765625 7.47265625 C-7.35289307 6.30484619 -7.35812988 5.13703613 -7.36352539 3.93383789 C-7.1523991 -1.05736927 -4.39763861 0.05916106 0 0 Z M-1.25 6.25 C-1.25 8.89 -1.25 11.53 -1.25 14.25 C1.39 14.25 4.03 14.25 6.75 14.25 C6.75 11.61 6.75 8.97 6.75 6.25 C4.11 6.25 1.47 6.25 -1.25 6.25 Z " fill="#1A8EB6" transform="translate(82.25,190.75)"/>
<path d="M0 0 C2.91517292 1.07401108 4.77810176 1.77810176 7 4 C8.47730922 7.84100398 8.06745825 11.95250514 8 16 C8.66 16.33 9.32 16.66 10 17 C9.0704607 23.77235772 9.0704607 23.77235772 8.1875 26.625 C7.72387953 29.20711859 7.72387953 29.20711859 9.875 31.5625 C10.57625 32.366875 11.2775 33.17125 12 34 C12.75 36.3125 12.75 36.3125 13 38 C13.66 38 14.32 38 15 38 C15.33 38.99 15.66 39.98 16 41 C13.525 41.495 13.525 41.495 11 42 C2 32.15533981 2 32.15533981 2 27 C1.45472656 27.16757813 0.90945312 27.33515625 0.34765625 27.5078125 C-5.68018849 29.13584578 -10.05631229 28.82666525 -16 27 C-16 26.01 -16 25.02 -16 24 C-16.66 24 -17.32 24 -18 24 C-18 23.34 -18 22.68 -18 22 C-18.66 21.67 -19.32 21.34 -20 21 C-19.67 20.34 -19.34 19.68 -19 19 C-18.34 19 -17.68 19 -17 19 C-16.67 18.01 -16.34 17.02 -16 16 C-15.67 16.99 -15.34 17.98 -15 19 C-14.34 19 -13.68 19 -13 19 C-13 19.66 -13 20.32 -13 21 C-12.01 21 -11.02 21 -10 21 C-10 21.66 -10 22.32 -10 23 C-7.03 23 -4.06 23 -1 23 C-0.34 21.68 0.32 20.36 1 19 C1.66 19 2.32 19 3 19 C3 17.68 3 16.36 3 15 C3.66 15 4.32 15 5 15 C4.87625 13.700625 4.7525 12.40125 4.625 11.0625 C4.55539063 10.33160156 4.48578125 9.60070312 4.4140625 8.84765625 C4.27742188 8.23792969 4.14078125 7.62820312 4 7 C3.34 6.67 2.68 6.34 2 6 C1.67 5.01 1.34 4.02 1 3 C0.34 2.34 -0.32 1.68 -1 1 C-0.67 0.67 -0.34 0.34 0 0 Z " fill="#099AC4" transform="translate(146,58)"/>
<path d="M0 0 C1.65 0 3.3 0 5 0 C5.55429688 1.12019531 6.10859375 2.24039063 6.6796875 3.39453125 C7.41135191 4.86724038 8.14312861 6.33989372 8.875 7.8125 C9.23980469 8.55048828 9.60460937 9.28847656 9.98046875 10.04882812 C10.33496094 10.76103516 10.68945312 11.47324219 11.0546875 12.20703125 C11.37937012 12.8616333 11.70405273 13.51623535 12.03857422 14.19067383 C13.09255672 16.24652798 13.09255672 16.24652798 15 19 C15.495 10.09 15.495 10.09 16 1 C17.32 1 18.64 1 20 1 C20 10.24 20 19.48 20 29 C18.35 29 16.7 29 15 29 C11.37 22.07 7.74 15.14 4 8 C3.67 14.93 3.34 21.86 3 29 C2.01 29 1.02 29 0 29 C0 19.43 0 9.86 0 0 Z " fill="#2E8DAC" transform="translate(217,191)"/>
<path d="M0 0 C1.10666016 -0.00386719 2.21332031 -0.00773438 3.35351562 -0.01171875 C9.94315907 -0.00393417 16.39672286 0.31581269 22.9375 1.125 C22.9375 1.455 22.9375 1.785 22.9375 2.125 C9.4075 2.455 -4.1225 2.785 -18.0625 3.125 C-18.3925 4.115 -18.7225 5.105 -19.0625 6.125 C-17.39695068 6.11714478 -17.39695068 6.11714478 -15.69775391 6.10913086 C-11.58659671 6.09106015 -7.47544304 6.07956038 -3.36425781 6.07006836 C-1.58332733 6.06503289 0.197599 6.05820419 1.97851562 6.04956055 C4.53516665 6.03746058 7.09176312 6.03176391 9.6484375 6.02734375 C10.44744476 6.02218246 11.24645203 6.01702118 12.06967163 6.01170349 C17.70975659 6.01112829 17.70975659 6.01112829 19.9375 7.125 C21.97805005 7.19565617 24.02084257 7.20921976 26.0625 7.1875 C27.15820312 7.17847656 28.25390625 7.16945312 29.3828125 7.16015625 C30.22585937 7.14855469 31.06890625 7.13695312 31.9375 7.125 C31.9375 8.115 31.9375 9.105 31.9375 10.125 C31.21949219 10.0542627 30.50148438 9.98352539 29.76171875 9.91064453 C20.64035076 9.1027276 11.58720287 8.97126451 2.43554688 8.99462891 C-0.05865555 8.99999173 -2.55267798 8.994649 -5.046875 8.98828125 C-14.10552987 8.98491422 -23.04027681 9.23614094 -32.0625 10.125 C-32.0625 8.125 -32.0625 8.125 -30.0625 6.125 C-30.7225 5.795 -31.3825 5.465 -32.0625 5.125 C-32.3925 6.445 -32.7225 7.765 -33.0625 9.125 C-34.0525 9.125 -35.0425 9.125 -36.0625 9.125 C-36.0625 7.125 -36.0625 5.125 -36.0625 3.125 C-34.29267066 2.80686314 -32.52155373 2.49588991 -30.75 2.1875 C-29.76386719 2.01347656 -28.77773437 1.83945313 -27.76171875 1.66015625 C-18.49974864 0.32025139 -9.35112735 -0.0327918 0 0 Z " fill="#1D93B6" transform="translate(140.0625,134.875)"/>
<path d="M0 0 C4.54054054 2.08108108 4.54054054 2.08108108 6 5 C6.29079381 8.28496729 6.27782588 11.57864713 6.3125 14.875 C6.34150391 15.78636719 6.37050781 16.69773438 6.40039062 17.63671875 C6.4634879 24.26678636 6.4634879 24.26678636 4.35546875 27.6015625 C1.39015651 29.36206297 -0.56149103 29.53438509 -4 29.5 C-5.546875 29.51546875 -5.546875 29.51546875 -7.125 29.53125 C-10.63913621 28.88189874 -11.78797608 27.74454819 -14 25 C-15.62062503 21.75874994 -15.26791352 18.24550138 -15.3125 14.6875 C-15.34150391 13.92759766 -15.37050781 13.16769531 -15.40039062 12.38476562 C-15.44542803 8.39722281 -15.3002138 6.47229512 -13.10546875 3.01953125 C-9.15600345 -0.76873138 -5.25187714 -0.52609477 0 0 Z M-11 6 C-11.37866276 8.98159657 -11.51434905 11.5301562 -11.4375 14.5 C-11.44458984 15.27214844 -11.45167969 16.04429687 -11.45898438 16.83984375 C-11.50997197 21.0891306 -11.50997197 21.0891306 -9.59399414 24.71923828 C-7.6077331 26.31518336 -6.52366247 26.40367798 -4 26.375 C-3.319375 26.38273437 -2.63875 26.39046875 -1.9375 26.3984375 C0.58747025 25.87918958 1.38067409 24.98008214 3 23 C3.3248229 20.07366753 3.46433068 17.42210479 3.4375 14.5 C3.45748047 13.72785156 3.47746094 12.95570313 3.49804688 12.16015625 C3.52131818 7.65489648 3.52131818 7.65489648 1.16015625 3.9921875 C-3.46821246 1.86631833 -7.53795227 2.22188422 -11 6 Z " fill="#1F92B2" transform="translate(164,191)"/>
<path d="M0 0 C1.87988281 0.24072266 1.87988281 0.24072266 4 1 C5.09667969 2.81005859 5.09667969 2.81005859 5.921875 5.1484375 C6.37626953 6.40914062 6.37626953 6.40914062 6.83984375 7.6953125 C7.14019531 8.57960937 7.44054687 9.46390625 7.75 10.375 C8.22373047 11.68984375 8.22373047 11.68984375 8.70703125 13.03125 C11 19.52303166 11 19.52303166 11 23 C11.66 23 12.32 23 13 23 C13.226875 21.783125 13.45375 20.56625 13.6875 19.3125 C15.09498394 13.05368844 16.95168415 6.65875208 20 1 C22.08837891 0.3359375 22.08837891 0.3359375 24 0 C22.6393319 6.75523606 20.71290027 13.08575595 18.375 19.5625 C18.05015625 20.47580078 17.7253125 21.38910156 17.390625 22.33007812 C16.59846371 24.55511941 15.8015341 26.77832175 15 29 C13.35 29 11.7 29 10 29 C7.57717051 23.48340363 5.40393558 17.89993244 3.3125 12.25 C2.99216797 11.40050781 2.67183594 10.55101562 2.34179688 9.67578125 C2.03951172 8.85980469 1.73722656 8.04382813 1.42578125 7.203125 C1.15161377 6.46739258 0.87744629 5.73166016 0.5949707 4.97363281 C0 3 0 3 0 0 Z " fill="#1F96BA" transform="translate(174,191)"/>
<path d="M0 0 C0.99 0 1.98 0 3 0 C3 8.25 3 16.5 3 25 C6.96 25 10.92 25 15 25 C15.33 26.32 15.66 27.64 16 29 C10.39 29 4.78 29 -1 29 C-1.02291487 25.0306345 -1.04284015 21.0614368 -1.05493164 17.09204102 C-1.05997057 15.74079614 -1.06680177 14.38955674 -1.07543945 13.03833008 C-1.08752419 11.09979566 -1.09269828 9.161222 -1.09765625 7.22265625 C-1.10289307 6.05484619 -1.10812988 4.88703613 -1.11352539 3.68383789 C-1 1 -1 1 0 0 Z " fill="#268AA9" transform="translate(130,191)"/>
<path d="M0 0 C1.98 0 3.96 0 6 0 C5.01 0.495 5.01 0.495 4 1 C3.53101037 3.8159849 3.53101037 3.8159849 3.375 7.0625 C3.30023438 8.16722656 3.22546875 9.27195313 3.1484375 10.41015625 C3.09945312 11.26480469 3.05046875 12.11945313 3 13 C5.64 12.67 8.28 12.34 11 12 C12.4216319 8.6828589 13.39009109 5.55780196 14 2 C15.5625 3.0625 15.5625 3.0625 17 5 C16.92787239 8.89489121 16.24088831 11.51822338 14.5 15 C11.54900375 17.360797 10.86769628 17.20498592 7.25 16.8125 C5.8475 16.544375 4.445 16.27625 3 16 C3 19.3 3 22.6 3 26 C1.68 26 0.36 26 -1 26 C-1.11624638 17.26860536 -0.89115181 8.68873018 0 0 Z " fill="#0998C1" transform="translate(77,193)"/>
<path d="M0 0 C2.78027218 2.47772849 4.38374743 5.19866089 6.1796875 8.4453125 C6.77910156 9.52296875 7.37851563 10.600625 7.99609375 11.7109375 C8.61613281 12.83757812 9.23617187 13.96421875 9.875 15.125 C10.48730469 16.2284375 11.09960938 17.331875 11.73046875 18.46875 C12.931038 20.63337379 14.12744443 22.80031252 15.31933594 24.96972656 C16.3922226 26.90416428 17.48238752 28.82918664 18.59472656 30.74121094 C19.06104492 31.5459082 19.52736328 32.35060547 20.0078125 33.1796875 C20.41918457 33.87562012 20.83055664 34.57155273 21.25439453 35.28857422 C21.50044434 35.85334473 21.74649414 36.41811523 22 37 C21.67 37.66 21.34 38.32 21 39 C20.34 38.67 19.68 38.34 19 38 C19 37.01 19 36.02 19 35 C18.34 35 17.68 35 17 35 C17 33.68 17 32.36 17 31 C16.34 31 15.68 31 15 31 C14.67 29.02 14.34 27.04 14 25 C13.21625 24.855625 12.4325 24.71125 11.625 24.5625 C9 24 9 24 7 23 C7.45375 23.556875 7.9075 24.11375 8.375 24.6875 C10.06612239 27.09409725 11.13563325 29.19080807 12 32 C11.67 32.99 11.34 33.98 11 35 C9.13287101 31.7155241 7.28355226 28.42136129 5.4375 25.125 C4.63795898 23.71927734 4.63795898 23.71927734 3.82226562 22.28515625 C3.07299805 20.94130859 3.07299805 20.94130859 2.30859375 19.5703125 C1.84251709 18.74289551 1.37644043 17.91547852 0.89624023 17.06298828 C0.60048096 16.38220215 0.30472168 15.70141602 0 15 C0.33 14.34 0.66 13.68 1 13 C1.66 13.66 2.32 14.32 3 15 C3.99 15.33 4.98 15.66 6 16 C6.33 15.01 6.66 14.02 7 13 C6.34 13 5.68 13 5 13 C3.02 9.535 3.02 9.535 1 6 C0.34 6 -0.32 6 -1 6 C-0.67 4.02 -0.34 2.04 0 0 Z " fill="#1994B9" transform="translate(154,83)"/>
<path d="M0 0 C1.4540625 0.0309375 1.4540625 0.0309375 2.9375 0.0625 C3.2675 1.3825 3.5975 2.7025 3.9375 4.0625 C1.6275 4.3925 -0.6825 4.7225 -3.0625 5.0625 C-4.0525 8.3625 -5.0425 11.6625 -6.0625 15.0625 C-6.7225 15.0625 -7.3825 15.0625 -8.0625 15.0625 C-7.71805119 17.53516765 -7.71805119 17.53516765 -7.0625 20.0625 C-3.57338401 21.80705799 0.43491795 21.52487266 4.28515625 21.78125 C6.9375 22.0625 6.9375 22.0625 7.9375 23.0625 C7.97813832 24.72867115 7.980221 26.39638095 7.9375 28.0625 C8.9275 28.0625 9.9175 28.0625 10.9375 28.0625 C10.6075 25.7525 10.2775 23.4425 9.9375 21.0625 C11.8826 23.98015 12.39026317 25.68787285 12.9375 29.0625 C10.9575 29.0625 8.9775 29.0625 6.9375 29.0625 C6.2775 27.4125 5.6175 25.7625 4.9375 24.0625 C1.6375 24.0625 -1.6625 24.0625 -5.0625 24.0625 C-6.0525 26.5375 -6.0525 26.5375 -7.0625 29.0625 C-9.0425 29.0625 -11.0225 29.0625 -13.0625 29.0625 C-12.39769127 22.96495741 -10.17939573 17.46043727 -8.0625 11.75 C-7.50949219 10.22922852 -7.50949219 10.22922852 -6.9453125 8.67773438 C-3.78856207 0.07731759 -3.78856207 0.07731759 0 0 Z " fill="#1D94B8" transform="translate(57.0625,190.9375)"/>
<path d="M0 0 C0.99 0 1.98 0 3 0 C3 9.57 3 19.14 3 29 C1.68 29 0.36 29 -1 29 C-1.02465881 25.03069011 -1.04284023 21.06140966 -1.05493164 17.09204102 C-1.05997057 15.74079614 -1.06680177 14.38955674 -1.07543945 13.03833008 C-1.08752419 11.09979566 -1.09269828 9.161222 -1.09765625 7.22265625 C-1.10289307 6.05484619 -1.10812988 4.88703613 -1.11352539 3.68383789 C-1 1 -1 1 0 0 Z " fill="#258CB0" transform="translate(204,191)"/>
<path d="M0 0 C5.68582243 1.32228429 7.7161093 3.40255302 11 8 C12.28317892 11.84953676 12.06643637 14.94738135 12 19 C11.34 19 10.68 19 10 19 C9.90203125 18.16855469 9.8040625 17.33710937 9.703125 16.48046875 C9.55359375 15.39378906 9.4040625 14.30710937 9.25 13.1875 C9.11078125 12.10855469 8.9715625 11.02960938 8.828125 9.91796875 C7.87964785 6.57592898 6.95126765 5.70957577 4 4 C3.67 4.33 3.34 4.66 3 5 C3.1762044 7.03871245 3.1762044 7.03871245 4 9 C4.99 9.33 5.98 9.66 7 10 C7 12.64 7 15.28 7 18 C6.34 18 5.68 18 5 18 C4.83564453 17.04287109 4.83564453 17.04287109 4.66796875 16.06640625 C4.43013672 14.82697266 4.43013672 14.82697266 4.1875 13.5625 C4.03667969 12.73878906 3.88585937 11.91507813 3.73046875 11.06640625 C3.48941406 10.38449219 3.24835938 9.70257813 3 9 C-0.70984413 7.76338529 -4.15211634 7.29630143 -8 8 C-11.00333267 10.33336666 -11.00333267 10.33336666 -13 13 C-13 11.02 -13 9.04 -13 7 C-11.84371094 6.87044922 -11.84371094 6.87044922 -10.6640625 6.73828125 C-9.15972656 6.52751953 -9.15972656 6.52751953 -7.625 6.3125 C-6.62726563 6.18488281 -5.62953125 6.05726562 -4.6015625 5.92578125 C-1.75581595 5.24489984 -1.75581595 5.24489984 -0.6484375 2.41796875 C-0.43445313 1.62003906 -0.22046875 0.82210937 0 0 Z " fill="#1B95BA" transform="translate(144,55)"/>
<path d="M0 0 C4.875 1.75 4.875 1.75 6 4 C6.12082534 5.66345582 6.1753794 7.33220591 6.1875 9 C6.20167969 9.886875 6.21585938 10.77375 6.23046875 11.6875 C6 14 6 14 4 16 C3.67 11.71 3.34 7.42 3 3 C2.34 3 1.68 3 1 3 C1.20625 3.86625 1.4125 4.7325 1.625 5.625 C2.04047622 9.36428602 1.39666276 11.54942141 0 15 C-1.47906892 15.02689216 -2.95827483 15.04634621 -4.4375 15.0625 C-5.67306641 15.07990234 -5.67306641 15.07990234 -6.93359375 15.09765625 C-9 15 -9 15 -10 14 C-10.16796875 12.00390625 -10.16796875 12.00390625 -10.1875 9.5625 C-10.20167969 8.75941406 -10.21585937 7.95632812 -10.23046875 7.12890625 C-10 5 -10 5 -8 3 C-5.34462628 2.43479997 -2.70855287 2.26211802 0 2 C0 1.34 0 0.68 0 0 Z M-8 5 C-8 7.64 -8 10.28 -8 13 C-5.36 13 -2.72 13 0 13 C0 10.36 0 7.72 0 5 C-2.64 5 -5.28 5 -8 5 Z " fill="#1C91B3" transform="translate(113,192)"/>
<path d="M0 0 C1.87768555 0.24511719 1.87768555 0.24511719 4 1 C5.11254883 2.77832031 5.11254883 2.77832031 5.95703125 5.078125 C6.26447266 5.90957031 6.57191406 6.74101562 6.88867188 7.59765625 C7.19353516 8.47292969 7.49839844 9.34820312 7.8125 10.25 C8.29879883 11.53970703 8.29879883 11.53970703 8.79492188 12.85546875 C10.47120914 17.51461409 11.08464191 20.10965975 10 25 C11.25541557 27.51083114 12.50063488 27.87125446 15 29 C13.35 29 11.7 29 10 29 C7.57717051 23.48340363 5.40393558 17.89993244 3.3125 12.25 C2.99216797 11.40050781 2.67183594 10.55101562 2.34179688 9.67578125 C2.03951172 8.85980469 1.73722656 8.04382813 1.42578125 7.203125 C1.15161377 6.46739258 0.87744629 5.73166016 0.5949707 4.97363281 C0 3 0 3 0 0 Z " fill="#228FB0" transform="translate(174,191)"/>
<path d="M0 0 C0.33 0.99 0.66 1.98 1 3 C0.67 3.66 0.34 4.32 0 5 C-0.66 5 -1.32 5 -2 5 C-2.33 7.64 -2.66 10.28 -3 13 C-2.34 13 -1.68 13 -1 13 C-1 14.32 -1 15.64 -1 17 C-0.01 17 0.98 17 2 17 C2 13.37 2 9.74 2 6 C2.99 5.67 3.98 5.34 5 5 C4.86980469 5.58007812 4.73960938 6.16015625 4.60546875 6.7578125 C3.68390047 11.48059234 3.68390047 11.48059234 5.046875 15.93359375 C6.56157693 17.76477126 6.56157693 17.76477126 9 20 C7.02 20 5.04 20 3 20 C2.67 20.99 2.34 21.98 2 23 C3.32 23.66 4.64 24.32 6 25 C3 25 3 25 0.4375 22.75 C-3.73457246 18.04304645 -4.42745454 14.67092685 -4.3359375 8.484375 C-3.83278574 4.76339224 -2.39331094 2.84205674 0 0 Z " fill="#1A92B6" transform="translate(75,145)"/>
<path d="M0 0 C1.485 0.99 1.485 0.99 3 2 C3.66 1.67 4.32 1.34 5 1 C5 2.32 5 3.64 5 5 C5.99 5 6.98 5 8 5 C9.04892238 6.63631892 10.04906703 8.30485863 11 10 C14.13871188 11.56935594 16.53855822 11.35201103 20 11 C22.93973281 8.64581624 22.93973281 8.64581624 25 6 C25 10 25 10 23.5625 12.25 C19.81648846 14.80825178 16.40547464 14.33888266 12 14 C12 13.34 12 12.68 12 12 C11.01 12 10.02 12 9 12 C9 11.34 9 10.68 9 10 C8.34 10 7.68 10 7 10 C6.67 9.34 6.34 8.68 6 8 C5.67 8.66 5.34 9.32 5 10 C4.34 10 3.68 10 3 10 C2.67 10.66 2.34 11.32 2 12 C0.00214565 7.8794254 -0.17835515 4.54805635 0 0 Z " fill="#1695B9" transform="translate(124,67)"/>
<path d="M0 0 C1.65322266 0.01740234 1.65322266 0.01740234 3.33984375 0.03515625 C4.99693359 0.04869141 4.99693359 0.04869141 6.6875 0.0625 C7.54214844 0.07410156 8.39679688 0.08570313 9.27734375 0.09765625 C9.27734375 0.42765625 9.27734375 0.75765625 9.27734375 1.09765625 C5.97734375 1.42765625 2.67734375 1.75765625 -0.72265625 2.09765625 C-1.38265625 10.67765625 -2.04265625 19.25765625 -2.72265625 28.09765625 C-1.40265625 28.09765625 -0.08265625 28.09765625 1.27734375 28.09765625 C1.27734375 24.79765625 1.27734375 21.49765625 1.27734375 18.09765625 C4.24734375 18.09765625 7.21734375 18.09765625 10.27734375 18.09765625 C9.94734375 18.75765625 9.61734375 19.41765625 9.27734375 20.09765625 C6.96734375 20.09765625 4.65734375 20.09765625 2.27734375 20.09765625 C2.27734375 23.06765625 2.27734375 26.03765625 2.27734375 29.09765625 C0.29734375 29.09765625 -1.68265625 29.09765625 -3.72265625 29.09765625 C-3.74731506 25.12834636 -3.76549648 21.15906591 -3.77758789 17.18969727 C-3.78262682 15.83845239 -3.78945802 14.48721299 -3.7980957 13.13598633 C-3.81018044 11.19745191 -3.81535453 9.25887825 -3.8203125 7.3203125 C-3.82554932 6.15250244 -3.83078613 4.98469238 -3.83618164 3.78149414 C-3.68244181 0.14695221 -3.6406551 0.13058304 0 0 Z " fill="#298AAA" transform="translate(78.72265625,190.90234375)"/>
<path d="M0 0 C1.32 0 2.64 0 4 0 C4.33 0.66 4.66 1.32 5 2 C7.02463255 2.65213292 7.02463255 2.65213292 9 3 C10.18538537 6.70432927 10.35140565 10.1345378 10 14 C8.125 15.9375 8.125 15.9375 6 17 C5.34 17 4.68 17 4 17 C4.33 13.04 4.66 9.08 5 5 C3.68 4.67 2.36 4.34 1 4 C0.67 2.68 0.34 1.36 0 0 Z " fill="#0798C6" transform="translate(198,145)"/>
<path d="M0 0 C0.66 3.63 1.32 7.26 2 11 C2.99 11 3.98 11 5 11 C5.33 11.99 5.66 12.98 6 14 C5 15 5 15 2.125 15.3125 C-1 15 -1 15 -2.875 13.5625 C-4.50854511 9.84164726 -4.78745629 5.99904274 -4 2 C-1 0 -1 0 0 0 Z " fill="#0F94BC" transform="translate(183,154)"/>
<path d="M0 0 C1.65322266 0.01740234 1.65322266 0.01740234 3.33984375 0.03515625 C4.99693359 0.04869141 4.99693359 0.04869141 6.6875 0.0625 C7.54214844 0.07410156 8.39679688 0.08570313 9.27734375 0.09765625 C9.27734375 0.75765625 9.27734375 1.41765625 9.27734375 2.09765625 C5.64734375 2.09765625 2.01734375 2.09765625 -1.72265625 2.09765625 C-2.05265625 10.67765625 -2.38265625 19.25765625 -2.72265625 28.09765625 C-1.40265625 28.09765625 -0.08265625 28.09765625 1.27734375 28.09765625 C1.27734375 25.12765625 1.27734375 22.15765625 1.27734375 19.09765625 C3.58734375 19.09765625 5.89734375 19.09765625 8.27734375 19.09765625 C8.27734375 19.42765625 8.27734375 19.75765625 8.27734375 20.09765625 C6.29734375 20.09765625 4.31734375 20.09765625 2.27734375 20.09765625 C2.27734375 23.06765625 2.27734375 26.03765625 2.27734375 29.09765625 C0.29734375 29.09765625 -1.68265625 29.09765625 -3.72265625 29.09765625 C-3.74731506 25.12834636 -3.76549648 21.15906591 -3.77758789 17.18969727 C-3.78262682 15.83845239 -3.78945802 14.48721299 -3.7980957 13.13598633 C-3.81018044 11.19745191 -3.81535453 9.25887825 -3.8203125 7.3203125 C-3.82554932 6.15250244 -3.83078613 4.98469238 -3.83618164 3.78149414 C-3.68244181 0.14695221 -3.6406551 0.13058304 0 0 Z " fill="#2D89A9" transform="translate(102.72265625,190.90234375)"/>
<path d="M0 0 C1.8871875 0.0309375 1.8871875 0.0309375 3.8125 0.0625 C3.8125 0.3925 3.8125 0.7225 3.8125 1.0625 C1.5025 1.0625 -0.8075 1.0625 -3.1875 1.0625 C-3.1875 1.7225 -3.1875 2.3825 -3.1875 3.0625 C-2.5275 3.0625 -1.8675 3.0625 -1.1875 3.0625 C-1.1875 4.0525 -1.1875 5.0425 -1.1875 6.0625 C-0.5275 5.7325 0.1325 5.4025 0.8125 5.0625 C1.1425 4.0725 1.4725 3.0825 1.8125 2.0625 C2.8025 2.3925 3.7925 2.7225 4.8125 3.0625 C4.4825 4.7125 4.1525 6.3625 3.8125 8.0625 C0.5125 8.3925 -2.7875 8.7225 -6.1875 9.0625 C-6.1875 8.0725 -6.1875 7.0825 -6.1875 6.0625 C-7.8375 5.7325 -9.4875 5.4025 -11.1875 5.0625 C-7.60998157 1.23825617 -5.24114904 -0.08592048 0 0 Z " fill="#0B99BE" transform="translate(87.1875,139.9375)"/>
<path d="M0 0 C0.66 0 1.32 0 2 0 C2 0.66 2 1.32 2 2 C2.66 2 3.32 2 4 2 C4 3.32 4 4.64 4 6 C4.66 6 5.32 6 6 6 C6.33 7.65 6.66 9.3 7 11 C7.33 10.34 7.66 9.68 8 9 C8.66 9 9.32 9 10 9 C10.33 8.01 10.66 7.02 11 6 C14.0916909 8.52956528 14.90931332 11.22454612 16 15 C14.35 14.67 12.7 14.34 11 14 C10.34 15.32 9.68 16.64 9 18 C7.49667622 15.18926431 5.99790265 12.37612794 4.5 9.5625 C4.07074219 8.76005859 3.64148438 7.95761719 3.19921875 7.13085938 C2.79316406 6.36708984 2.38710937 5.60332031 1.96875 4.81640625 C1.59169922 4.10943604 1.21464844 3.40246582 0.82617188 2.67407227 C0 1 0 1 0 0 Z " fill="#1893BA" transform="translate(167,120)"/>
<path d="M0 0 C2.45973778 2.45973778 2.32301675 3.29299385 2.375 6.6875 C2.29953394 11.88711145 0.94011157 14.77358962 -2 19 C-2.99 19 -3.98 19 -5 19 C-4.34 18.01 -3.68 17.02 -3 16 C-3.928125 15.7834375 -3.928125 15.7834375 -4.875 15.5625 C-7 15 -7 15 -9 14 C-8.505 13.46375 -8.01 12.9275 -7.5 12.375 C-5.59736187 9.36248963 -5.70147311 7.507691 -6 4 C-6.33 3.01 -6.66 2.02 -7 1 C-6.01 1 -5.02 1 -4 1 C-4 4.63 -4 8.26 -4 12 C-2.68 11.34 -1.36 10.68 0 10 C0 6.7 0 3.4 0 0 Z " fill="#1B94B7" transform="translate(207,149)"/>
<path d="M0 0 C0.66 0 1.32 0 2 0 C2 8.58 2 17.16 2 26 C1.01 26 0.02 26 -1 26 C-3.09230769 21.56923077 -3.09230769 21.56923077 -2.625 18.6875 C-2.41875 18.130625 -2.2125 17.57375 -2 17 C-1.67 17.66 -1.34 18.32 -1 19 C-0.67 12.73 -0.34 6.46 0 0 Z " fill="#1294BA" transform="translate(234,193)"/>
<path d="M0 0 C0.99 0 1.98 0 3 0 C3 0.66 3 1.32 3 2 C3.66 2 4.32 2 5 2 C5 3.32 5 4.64 5 6 C4.34 6 3.68 6 3 6 C2.67 12.27 2.34 18.54 2 25 C1.34 25.33 0.68 25.66 0 26 C0 17.42 0 8.84 0 0 Z " fill="#1B96BD" transform="translate(218,193)"/>
<path d="M0 0 C2.91517292 1.07401108 4.77810176 1.77810176 7 4 C8.47730922 7.84100398 8.06745825 11.95250514 8 16 C8.66 16.33 9.32 16.66 10 17 C8.02 16.67 6.04 16.34 4 16 C4 13.03 4 10.06 4 7 C3.34 6.67 2.68 6.34 2 6 C1.67 5.01 1.34 4.02 1 3 C0.34 2.34 -0.32 1.68 -1 1 C-0.67 0.67 -0.34 0.34 0 0 Z " fill="#049CC5" transform="translate(146,58)"/>
<path d="M0 0 C0.33 0 0.66 0 1 0 C1.36263859 5.8022175 0.25684543 9.63999211 -2 15 C-3.65 14.67 -5.3 14.34 -7 14 C-7.33 12.35 -7.66 10.7 -8 9 C-6.68 9.33 -5.36 9.66 -4 10 C-3.67 8.02 -3.34 6.04 -3 4 C-2.01 3.67 -1.02 3.34 0 3 C0 2.01 0 1.02 0 0 Z " fill="#1598BF" transform="translate(191,204)"/>
<path d="M0 0 C1.32 0.33 2.64 0.66 4 1 C0.37 7.27 -3.26 13.54 -7 20 C-8.25262369 17.49475261 -8.86863344 15.824381 -9 13 C-6.625 10.3125 -6.625 10.3125 -4 8 C-3.67 7.34 -3.34 6.68 -3 6 C-2.34 5.67 -1.68 5.34 -1 5 C-0.34444881 2.47266765 -0.34444881 2.47266765 0 0 Z " fill="#1193B8" transform="translate(111,117)"/>
<path d="M0 0 C2.22909871 -0.02714735 4.45829367 -0.04646254 6.6875 -0.0625 C7.92886719 -0.07410156 9.17023438 -0.08570313 10.44921875 -0.09765625 C13.46235454 -0.01478673 16.08275339 0.29160551 19 1 C19 1.33 19 1.66 19 2 C15.97265625 2.24414062 15.97265625 2.24414062 12.9453125 2.48828125 C10.60480784 2.87393036 10.60480784 2.87393036 9 6 C7.68 5.67 6.36 5.34 5 5 C5 4.34 5 3.68 5 3 C3.35 2.67 1.7 2.34 0 2 C0 1.34 0 0.68 0 0 Z " fill="#1098BD" transform="translate(157,137)"/>
<path d="M0 0 C3.62174279 3.62174279 4.87956218 9.03284894 5.1875 14.0625 C5.125625 14.701875 5.06375 15.34125 5 16 C3.04783565 14.04783565 2.15173355 12.46800047 1 10 C0.01 10.33 -0.98 10.66 -2 11 C-3.35439668 8.29120665 -3.06501451 5.99066732 -3 3 C-2.01 3 -1.02 3 0 3 C0 2.01 0 1.02 0 0 Z " fill="#1894B8" transform="translate(61,195)"/>
<path d="M0 0 C0.99 0.99 1.98 1.98 3 3 C3 3.66 3 4.32 3 5 C3.66 5 4.32 5 5 5 C4.50168276 8.68754757 3.89932357 10.60490662 1 13 C-0.125 9.25 -0.125 9.25 1 7 C0.01 7 -0.98 7 -2 7 C-2.33 7.99 -2.66 8.98 -3 10 C-3.66 9.67 -4.32 9.34 -5 9 C-3.35 6.03 -1.7 3.06 0 0 Z " fill="#1894BA" transform="translate(114,102)"/>
<path d="M0 0 C0.66 0 1.32 0 2 0 C2 0.66 2 1.32 2 2 C2.66 2 3.32 2 4 2 C4 2.99 4 3.98 4 5 C4.66 5 5.32 5 6 5 C5.39816251 7.02045442 4.72693904 9.02111039 4 11 C3.01 11.495 3.01 11.495 2 12 C2 10.02 2 8.04 2 6 C-1.52381687 8.54604597 -1.52381687 8.54604597 -4 12 C-4.66 11.67 -5.32 11.34 -6 11 C-4.02 7.37 -2.04 3.74 0 0 Z " fill="#1A97BA" transform="translate(126,80)"/>
<path d="M0 0 C0.66 0 1.32 0 2 0 C2.144375 1.134375 2.28875 2.26875 2.4375 3.4375 C2.61171478 6.80777201 2.61171478 6.80777201 4 8 C5.68183948 8.23287008 7.3712416 8.41264166 9.0625 8.5625 C9.98160156 8.64628906 10.90070313 8.73007813 11.84765625 8.81640625 C12.55792969 8.87699219 13.26820313 8.93757812 14 9 C14 9.66 14 10.32 14 11 C9.38 11 4.76 11 0 11 C0 7.37 0 3.74 0 0 Z " fill="#1094BE" transform="translate(130,208)"/>
<path d="M0 0 C0.99 0 1.98 0 3 0 C2.125 4.875 2.125 4.875 1 6 C-0.68183948 6.23287008 -2.3712416 6.41264166 -4.0625 6.5625 C-4.98160156 6.64628906 -5.90070313 6.73007812 -6.84765625 6.81640625 C-7.55792969 6.87699219 -8.26820313 6.93757813 -9 7 C-8.67 5.35 -8.34 3.7 -8 2 C-5.69 2.33 -3.38 2.66 -1 3 C-0.67 2.01 -0.34 1.02 0 0 Z " fill="#0699C5" transform="translate(141,55)"/>
<path d="M0 0 C2.97 0.495 2.97 0.495 6 1 C6 1.66 6 2.32 6 3 C6.66 3 7.32 3 8 3 C7.67 4.32 7.34 5.64 7 7 C3.62537285 6.45276317 1.91765 5.9451 -1 4 C-0.67 2.68 -0.34 1.36 0 0 Z " fill="#0798C7" transform="translate(78,164)"/>
<path d="M0 0 C1.9451 2.91765 2.45276317 4.62537285 3 8 C1.02 8 -0.96 8 -3 8 C-3.66 6.35 -4.32 4.7 -5 3 C-8.63 3 -12.26 3 -16 3 C-16.33 2.34 -16.66 1.68 -17 1 C-14.68756208 0.97314588 -12.3750373 0.95367159 -10.0625 0.9375 C-8.77472656 0.92589844 -7.48695312 0.91429687 -6.16015625 0.90234375 C-3 1 -3 1 -2 2 C-1.95936168 3.66617115 -1.957279 5.33388095 -2 7 C-1.01 7 -0.02 7 1 7 C0.67 4.69 0.34 2.38 0 0 Z " fill="#2B93B5" transform="translate(67,212)"/>
<path d="M0 0 C0.66 0 1.32 0 2 0 C3.38226016 2.76452033 3.09525387 5.0461363 3.0625 8.125 C3.05347656 9.22070312 3.04445313 10.31640625 3.03515625 11.4453125 C3.02355469 12.28835937 3.01195313 13.13140625 3 14 C-1.12168689 15.62950412 -3.70700357 16.26264601 -8 15 C-8 14.67 -8 14.34 -8 14 C-5.03 14 -2.06 14 1 14 C1.08226668 10.95613276 0.97608217 8.92824652 0 6 C-0.03920815 4.00038436 -0.04443347 1.99950636 0 0 Z " fill="#0F95BA" transform="translate(114,195)"/>
<path d="M0 0 C1.70840281 1.63412443 2.93453047 2.86906094 4 5 C7.3 5 10.6 5 14 5 C14 5.33 14 5.66 14 6 C10.01939223 7.17076699 6.08378283 8.25749403 2 9 C2 8.34 2 7.68 2 7 C1.01 7 0.02 7 -1 7 C-0.67 4.69 -0.34 2.38 0 0 Z " fill="#1996BD" transform="translate(183,135)"/>
<path d="M0 0 C1.26328125 0.01804688 2.5265625 0.03609375 3.828125 0.0546875 C4.79234375 0.07789063 5.7565625 0.10109375 6.75 0.125 C6.09 1.775 5.43 3.425 4.75 5.125 C4.09 4.465 3.43 3.805 2.75 3.125 C1.76 3.125 0.77 3.125 -0.25 3.125 C-1.24 2.795 -2.23 2.465 -3.25 2.125 C-4.64439664 2.05834624 -6.04169875 2.03961801 -7.4375 2.0625 C-8.695625 2.083125 -9.95375 2.10375 -11.25 2.125 C-7.54583874 -0.25090142 -4.32015427 -0.08000286 0 0 Z " fill="#1498BC" transform="translate(115.25,136.875)"/>
<path d="M0 0 C1.32 0.33 2.64 0.66 4 1 C4.33 2.98 4.66 4.96 5 7 C4.67 7 4.34 7 4 7 C3.67 11.62 3.34 16.24 3 21 C2.67 21 2.34 21 2 21 C1.93941406 19.81921875 1.87882813 18.6384375 1.81640625 17.421875 C1.73197418 15.8645723 1.64732751 14.30728121 1.5625 12.75 C1.52318359 11.97269531 1.48386719 11.19539062 1.44335938 10.39453125 C1.40146484 9.64042969 1.35957031 8.88632813 1.31640625 8.109375 C1.27974854 7.41811523 1.24309082 6.72685547 1.20532227 6.01464844 C0.99324476 3.93371671 0.55491323 2.01427578 0 0 Z " fill="#268AA9" transform="translate(165,193)"/>
<path d="M0 0 C0.33 3.3 0.66 6.6 1 10 C-0.65 9.67 -2.3 9.34 -4 9 C-4.1875 5.625 -4.1875 5.625 -4 2 C-1 0 -1 0 0 0 Z " fill="#049AC5" transform="translate(183,154)"/>
<path d="M0 0 C0.66 0.66 1.32 1.32 2 2 C2.33 1.34 2.66 0.68 3 0 C3.66 0 4.32 0 5 0 C5 2.97 5 5.94 5 9 C4.01 9 3.02 9 2 9 C0.50178941 5.62902617 0 3.79557881 0 0 Z " fill="#0C9CC1" transform="translate(231,210)"/>
<path d="M0 0 C0.33 0.99 0.66 1.98 1 3 C0.67 3.66 0.34 4.32 0 5 C-0.66 5 -1.32 5 -2 5 C-2.09038099 10.15171623 -1.84681133 14.91913204 -1 20 C-3 19 -3 19 -4 16 C-4.51645809 11.08094834 -4.85442177 6.60115803 -2 2.375 C-1.34 1.59125 -0.68 0.8075 0 0 Z " fill="#3093B3" transform="translate(75,145)"/>
<path d="M0 0 C0.33 0.66 0.66 1.32 1 2 C0.01 2.99 -0.98 3.98 -2 5 C-2.33 4.34 -2.66 3.68 -3 3 C-4.093125 3.45375 -5.18625 3.9075 -6.3125 4.375 C-6.92738281 4.63023438 -7.54226562 4.88546875 -8.17578125 5.1484375 C-10.26533932 6.06806692 -10.26533932 6.06806692 -13 8 C-11.53848071 4.14690368 -9.68722565 2.75981224 -6 1 C-2.6875 0.3125 -2.6875 0.3125 0 0 Z " fill="#1C95B6" transform="translate(140,54)"/>
<path d="M0 0 C2.46906319 3.70359478 2.55995385 6.70423462 2 11 C0.625 14 0.625 14 -1 16 C-1.66 16 -2.32 16 -3 16 C-2.53820726 13.84496721 -2.08799278 12.14492928 -0.9375 10.25 C0.49277652 6.81733635 0.12332734 3.69982016 0 0 Z " fill="#228DAB" transform="translate(93,194)"/>
<path d="M0 0 C3 3 3 3 3.36328125 5.41015625 C3.34652344 6.28542969 3.32976562 7.16070312 3.3125 8.0625 C3.30863281 8.94035156 3.30476563 9.81820312 3.30078125 10.72265625 C3 13 3 13 1 15 C0.67 10.05 0.34 5.1 0 0 Z " fill="#228AA8" transform="translate(116,193)"/>
<path d="M0 0 C0.99 0 1.98 0 3 0 C3.33 2.31 3.66 4.62 4 7 C3.01 7.33 2.02 7.66 1 8 C1 6.68 1 5.36 1 4 C-0.32 4.33 -1.64 4.66 -3 5 C-3.33 4.34 -3.66 3.68 -4 3 C-3.01 2.67 -2.02 2.34 -1 2 C-0.67 1.34 -0.34 0.68 0 0 Z " fill="#099FC6" transform="translate(112,109)"/>
<path d="M0 0 C1.32 0.33 2.64 0.66 4 1 C4 1.66 4 2.32 4 3 C4.99 3.33 5.98 3.66 7 4 C6.34 5.32 5.68 6.64 5 8 C4.34 8 3.68 8 3 8 C2.67 6.35 2.34 4.7 2 3 C1.34 3 0.68 3 0 3 C0 2.01 0 1.02 0 0 Z " fill="#0399C0" transform="translate(171,123)"/>
<path d="M0 0 C0.99 0 1.98 0 3 0 C2.34 2.97 1.68 5.94 1 9 C0.67 8.01 0.34 7.02 0 6 C-0.66 6 -1.32 6 -2 6 C-1.34 4.02 -0.68 2.04 0 0 Z " fill="#298EAF" transform="translate(195,191)"/>
<path d="M0 0 C2.70931419 0.15481795 4.46584039 0.48172081 6.4453125 2.40234375 C7.67679642 3.89771708 8.8429837 5.4462924 10 7 C7.625 6.6875 7.625 6.6875 5 6 C4.34 5.01 3.68 4.02 3 3 C2.34 3 1.68 3 1 3 C0.67 2.01 0.34 1.02 0 0 Z " fill="#1C91B0" transform="translate(197,141)"/>
<path d="M0 0 C0 0.33 0 0.66 0 1 C-1.5778125 1.0928125 -1.5778125 1.0928125 -3.1875 1.1875 C-7.6291735 2.13408616 -9.11593757 3.59156258 -12 7 C-12 5.02 -12 3.04 -12 1 C-8.0186217 -0.3271261 -4.14954773 -0.06915913 0 0 Z " fill="#1C93B3" transform="translate(143,61)"/>
<path d="M0 0 C0.33 0.66 0.66 1.32 1 2 C0.0355414 4.34824702 -0.96514123 6.68191636 -2 9 C-2 9.66 -2 10.32 -2 11 C-2.99 11 -3.98 11 -5 11 C-5 11.66 -5 12.32 -5 13 C-5.66 12.67 -6.32 12.34 -7 12 C-4.69 8.04 -2.38 4.08 0 0 Z " fill="#239AB9" transform="translate(99,129)"/>
<path d="M0 0 C1.8871875 0.0309375 1.8871875 0.0309375 3.8125 0.0625 C3.8125 0.3925 3.8125 0.7225 3.8125 1.0625 C3.23242188 1.18367187 2.65234375 1.30484375 2.0546875 1.4296875 C-2.46778442 2.39985474 -6.82500966 3.49647783 -11.1875 5.0625 C-7.60998157 1.23825617 -5.24114904 -0.08592048 0 0 Z " fill="#2895B3" transform="translate(87.1875,139.9375)"/>
<path d="M0 0 C0.66 0.66 1.32 1.32 2 2 C4.10820797 1.6814823 4.10820797 1.6814823 6 1 C7 4 7 4 6 7 C5.34 7 4.68 7 4 7 C3.67 6.01 3.34 5.02 3 4 C2.01 4 1.02 4 0 4 C-0.33 3.01 -0.66 2.02 -1 1 C-0.67 0.67 -0.34 0.34 0 0 Z " fill="#11A1C7" transform="translate(125,65)"/>
<path d="M0 0 C1.8871875 0.0309375 1.8871875 0.0309375 3.8125 0.0625 C2.8225 0.5575 2.8225 0.5575 1.8125 1.0625 C1.8125 1.7225 1.8125 2.3825 1.8125 3.0625 C-0.8275 3.0625 -3.4675 3.0625 -6.1875 3.0625 C-6.5175 2.4025 -6.8475 1.7425 -7.1875 1.0625 C-4.43671116 0.14557039 -2.82801087 -0.04636083 0 0 Z " fill="#298FAF" transform="translate(160.1875,216.9375)"/>
<path d="M0 0 C2.31 0 4.62 0 7 0 C7 0.99 7 1.98 7 3 C4.36 3 1.72 3 -1 3 C-0.67 2.01 -0.34 1.02 0 0 Z " fill="#049BC4" transform="translate(54,195)"/>
<path d="M0 0 C0.99 0 1.98 0 3 0 C3 0.66 3 1.32 3 2 C3.66 2 4.32 2 5 2 C5 2.66 5 3.32 5 4 C5.99 4.33 6.98 4.66 8 5 C5.36 4.67 2.72 4.34 0 4 C0 2.68 0 1.36 0 0 Z " fill="#129AB3" transform="translate(151,214)"/>
<path d="M0 0 C1.32 0.33 2.64 0.66 4 1 C4.33 2.65 4.66 4.3 5 6 C3.68 6 2.36 6 1 6 C0.67 4.02 0.34 2.04 0 0 Z " fill="#2183AD" transform="translate(174,191)"/>
<path d="M0 0 C1.32 0.33 2.64 0.66 4 1 C1.525 5.455 1.525 5.455 -1 10 C-2.10191901 5.59232396 -1.58706842 4.1077065 0 0 Z " fill="#2090AE" transform="translate(111,117)"/>
<path d="M0 0 C3 2 3 2 5 4 C5.40047444 6.32275177 5.7397104 8.65739357 6 11 C2.90407165 7.4912812 1.25805377 4.50802601 0 0 Z " fill="#2492AF" transform="translate(154,96)"/>
<path d="M0 0 C1.32 0.66 2.64 1.32 4 2 C3.67 3.65 3.34 5.3 3 7 C2.67 6.34 2.34 5.68 2 5 C-0.02463255 4.34786708 -0.02463255 4.34786708 -2 4 C-1.34 2.68 -0.68 1.36 0 0 Z " fill="#09A3CB" transform="translate(117,102)"/>
<path d="M0 0 C2.0625 0.4375 2.0625 0.4375 4 1 C4 2.65 4 4.3 4 6 C1 5 1 5 -0.1875 2.9375 C-0.5896875 1.9784375 -0.5896875 1.9784375 -1 1 C-0.67 0.67 -0.34 0.34 0 0 Z " fill="#109EC0" transform="translate(152,91)"/>
<path d="M0 0 C0.33 0 0.66 0 1 0 C1 1.65 1 3.3 1 5 C1.66 5 2.32 5 3 5 C3 7.31 3 9.62 3 12 C0.13700494 9.13700494 0.00578775 7.34147716 -0.0625 3.3125 C-0.041875 2.219375 -0.02125 1.12625 0 0 Z " fill="#2898BD" transform="translate(124,67)"/>
<path d="M0 0 C3.0916909 2.52956528 3.90931332 5.22454612 5 9 C3.0625 8.4375 3.0625 8.4375 1 7 C0.25 3.375 0.25 3.375 0 0 Z " fill="#2093B3" transform="translate(178,126)"/>
<path d="M0 0 C0.33 1.32 0.66 2.64 1 4 C0.34 4 -0.32 4 -1 4 C-1.33 5.65 -1.66 7.3 -2 9 C-2.66 9 -3.32 9 -4 9 C-2.94124926 5.59687262 -1.99097846 2.98646769 0 0 Z " fill="#2293B7" transform="translate(104,120)"/>
<path d="M0 0 C0.99 0 1.98 0 3 0 C2.67 2.31 2.34 4.62 2 7 C1.34 6.67 0.68 6.34 0 6 C-0.6875 3.5 -0.6875 3.5 -1 1 C-0.67 0.67 -0.34 0.34 0 0 Z " fill="#1395B6" transform="translate(152,75)"/>
</svg>
