<?xml version="1.0" encoding="UTF-8"?>
<svg version="1.1" xmlns="http://www.w3.org/2000/svg" width="667" height="374">
<path d="M0 0 C6.33513255 3.18203005 10.40713938 9.13563931 13.1640625 15.4765625 C22.11371612 44.27932098 14.48945464 80.81977678 7.31542969 109.40673828 C6.77892062 111.66149687 6.3240116 113.92547135 5.875 116.19921875 C5.71136963 116.98997803 5.54773926 117.7807373 5.37915039 118.59545898 C5.06808349 120.1008711 4.77196766 121.60948318 4.49389648 123.12133789 C4.05859375 125.140625 4.05859375 125.140625 2.8359375 128.421875 C-0.90067905 130.45164105 -4.13686869 130.67033592 -8.33886719 130.66479492 C-10.22171921 130.66934944 -10.22171921 130.66934944 -12.14260864 130.67399597 C-13.5403862 130.66702886 -14.93816247 130.65980124 -16.3359375 130.65234375 C-17.83682227 130.65148136 -19.33770765 130.65140963 -20.83859253 130.65205383 C-24.9882618 130.65088156 -29.13779213 130.63628987 -33.28742218 130.61911011 C-36.80724392 130.6060646 -40.32706301 130.60051935 -43.84690285 130.59467125 C-97.6197485 130.49940507 -151.39380976 129.92755039 -205.1640625 129.421875 C-205.1640625 128.431875 -205.1640625 127.441875 -205.1640625 126.421875 C-180.96961806 113.421875 -180.96961806 113.421875 -176.1640625 113.421875 C-176.1640625 112.761875 -176.1640625 112.101875 -176.1640625 111.421875 C-175.05546875 110.87917969 -173.946875 110.33648437 -172.8046875 109.77734375 C-171.34103981 109.05490226 -169.877504 108.33223408 -168.4140625 107.609375 C-167.68445313 107.25294922 -166.95484375 106.89652344 -166.203125 106.52929688 C-162.57317129 104.73081981 -159.39632877 102.87418137 -156.1640625 100.421875 C-154.50265487 99.74220824 -152.83588648 99.07550089 -151.1640625 98.421875 C-149.76271437 97.56784586 -148.38732952 96.66995953 -147.0390625 95.734375 C-143.45975191 93.29803754 -139.86343965 90.89678383 -136.2265625 88.546875 C-135.31003906 87.95132813 -134.39351563 87.35578125 -133.44921875 86.7421875 C-131.1640625 85.421875 -131.1640625 85.421875 -129.1640625 85.421875 C-128.6690625 83.936875 -128.6690625 83.936875 -128.1640625 82.421875 C-122.94184028 79.421875 -122.94184028 79.421875 -120.1640625 79.421875 C-119.6690625 77.936875 -119.6690625 77.936875 -119.1640625 76.421875 C-117.01953125 74.703125 -117.01953125 74.703125 -114.3515625 72.921875 C-110.59553645 70.39918928 -110.59553645 70.39918928 -106.96484375 67.703125 C-105.1640625 66.421875 -105.1640625 66.421875 -103.1640625 66.421875 C-103.1640625 65.761875 -103.1640625 65.101875 -103.1640625 64.421875 C-99.70252404 61.421875 -99.70252404 61.421875 -97.1640625 61.421875 C-96.8959375 60.7825 -96.6278125 60.143125 -96.3515625 59.484375 C-95.1640625 57.421875 -95.1640625 57.421875 -92.1640625 56.421875 C-92.1640625 55.761875 -92.1640625 55.101875 -92.1640625 54.421875 C-90.5546875 53.08984375 -90.5546875 53.08984375 -88.4140625 51.609375 C-85.04344588 49.17306965 -82.70725721 46.72802813 -80.1640625 43.421875 C-79.14157612 42.52453669 -78.09861936 41.65012391 -77.0390625 40.796875 C-74.04552835 38.55629118 -74.04552835 38.55629118 -72.1640625 35.421875 C-70.50929813 34.40230025 -68.84140811 33.40385742 -67.1640625 32.421875 C-65.78011055 31.24777373 -64.42631068 30.03739064 -63.1015625 28.796875 C-57.73934923 23.9423796 -52.00936134 19.67369788 -46.1640625 15.421875 C-45.29394531 14.77863281 -44.42382812 14.13539063 -43.52734375 13.47265625 C-31.41739016 4.7086239 -15.39687818 -4.11324543 0 0 Z " fill="#6E943C" transform="translate(605.1640625,122.578125)"/>
<path d="M0 0 C1.88647461 0.65209961 1.88647461 0.65209961 4 2 C5.04907227 4.47094727 5.04907227 4.47094727 5.81640625 7.56640625 C6.25049805 9.25540039 6.25049805 9.25540039 6.69335938 10.97851562 C6.98017578 12.16123047 7.26699219 13.34394531 7.5625 14.5625 C8.14465649 16.87692703 8.72924893 19.19074285 9.31640625 21.50390625 C9.59613281 22.61620605 9.87585938 23.72850586 10.1640625 24.87451172 C10.89940461 27.62388372 11.72947329 30.29239109 12.66015625 32.98046875 C13.78601667 36.23764912 14.53840676 39.30246925 14.875 42.75 C14.97554687 43.63171875 15.07609375 44.5134375 15.1796875 45.421875 C14.80301466 50.82631136 10.78571725 54.62037772 7.4375 58.625 C5.1465153 61.37117213 2.98454379 64.02318432 1 67 C0.34 67 -0.32 67 -1 67 C-1.268125 67.57234375 -1.53625 68.1446875 -1.8125 68.734375 C-3.04132636 71.07884634 -4.42522176 73.12404938 -6 75.25 C-6.515625 75.95640625 -7.03125 76.6628125 -7.5625 77.390625 C-8.036875 77.92171875 -8.51125 78.4528125 -9 79 C-9.66 79 -10.32 79 -11 79 C-11.24878906 79.72960937 -11.49757813 80.45921875 -11.75390625 81.2109375 C-13.1120256 84.2507407 -14.68625404 86.18510215 -16.9375 88.625 C-17.62714844 89.38039063 -18.31679688 90.13578125 -19.02734375 90.9140625 C-21.42376861 93.44810384 -23.89259614 95.89400935 -26.375 98.34375 C-28.99777899 100.99775255 -31.50579044 103.72519186 -34 106.5 C-38.11896526 111.08234885 -42.21083948 115.54630707 -47 119.4375 C-50.06383105 121.90715115 -50.06383105 121.90715115 -52.4375 124.9375 C-55.29918691 128.35756485 -58.35578752 131.41141582 -62 134 C-62.66 134 -63.32 134 -64 134 C-64.2475 134.61875 -64.495 135.2375 -64.75 135.875 C-66.26029304 138.44249816 -67.36091208 138.71815729 -70 140 C-70.72703125 140.7321875 -71.4540625 141.464375 -72.203125 142.21875 C-75.27666608 145.27512046 -78.51875325 147.90919924 -81.9375 150.5625 C-82.53240234 151.03107422 -83.12730469 151.49964844 -83.74023438 151.98242188 C-94.0004917 160 -94.0004917 160 -97 160 C-97.24105469 160.6084375 -97.48210937 161.216875 -97.73046875 161.84375 C-99.27678345 164.47010605 -100.60631262 165.15372863 -103.3125 166.5 C-106.90077285 168.37711881 -109.89234456 170.383027 -113 173 C-117.47291714 176.38725764 -122.08698853 179.30005676 -127 182 C-131.28691112 184.39077735 -135.43501629 186.90393133 -139.5625 189.5625 C-149.61936695 196 -149.61936695 196 -153 196 C-153 196.66 -153 197.32 -153 198 C-155.90600261 199.25664978 -157.79604584 200 -161 200 C-160.45541143 196.02890071 -158.59622644 194.25934584 -155.7734375 191.515625 C-154.47212891 190.23558594 -154.47212891 190.23558594 -153.14453125 188.9296875 C-152.23058594 188.04539063 -151.31664062 187.16109375 -150.375 186.25 C-144.87172927 180.88212088 -139.43245897 175.55181711 -134.45947266 169.68261719 C-133.02853278 168.03289527 -131.6315498 166.45335058 -130 165 C-129.34 165 -128.68 165 -128 165 C-127.72470459 164.40630615 -127.44940918 163.8126123 -127.16577148 163.20092773 C-126.05530371 161.10441108 -124.91308946 159.55492998 -123.34765625 157.78515625 C-122.82373291 157.18775635 -122.29980957 156.59035645 -121.76000977 155.97485352 C-121.19983154 155.34377686 -120.63965332 154.7127002 -120.0625 154.0625 C-118.88484035 152.71925506 -117.70776731 151.37549561 -116.53125 150.03125 C-115.93957031 149.35707031 -115.34789062 148.68289062 -114.73828125 147.98828125 C-108.6937439 141.07441718 -102.68227576 134.12810018 -97.26953125 126.703125 C-96.00997153 125.0133772 -94.68278699 123.41318922 -93.3125 121.8125 C-91.22918866 119.27874297 -89.67172911 116.80867334 -88 114 C-86.9735362 112.48955586 -85.93115142 110.98983678 -84.875 109.5 C-84.26785156 108.63632813 -83.66070312 107.77265625 -83.03515625 106.8828125 C-81.58830688 104.83334065 -80.1373518 102.78676459 -78.68359375 100.7421875 C-74.63362192 95.00806072 -71.00783816 89.36273457 -68 83 C-67.55011719 82.42378906 -67.10023438 81.84757812 -66.63671875 81.25390625 C-64.41949245 78.20058984 -62.83603322 74.8800115 -61.1875 71.5 C-60.4752903 70.05727691 -59.76305048 68.6145687 -59.05078125 67.171875 C-58.70225098 66.46224609 -58.3537207 65.75261719 -57.99462891 65.02148438 C-56.63473231 62.25762974 -55.25545843 59.50363212 -53.875 56.75 C-53.40191406 55.79996094 -52.92882812 54.84992188 -52.44140625 53.87109375 C-51.44072691 51.87787066 -50.42672824 49.89130083 -49.40234375 47.91015625 C-47.07850459 43.38238118 -44.92803534 39.10009667 -43.5625 34.1875 C-41.07083884 26.17009435 -33.43859126 21.64314631 -26.625 17.4375 C-25.1169431 16.48476174 -23.60912804 15.53164057 -22.1015625 14.578125 C-21.3890332 14.13146484 -20.67650391 13.68480469 -19.94238281 13.22460938 C-17.60269715 11.74951344 -15.29628514 10.22917553 -13 8.6875 C-12.34128906 8.24535156 -11.68257812 7.80320312 -11.00390625 7.34765625 C-10.34261719 6.90292969 -9.68132812 6.45820312 -9 6 C-7.31290004 4.87440018 -5.62540125 3.74939789 -3.9375 2.625 C-3.18339844 2.12226562 -2.42929687 1.61953125 -1.65234375 1.1015625 C-1.10707031 0.73804687 -0.56179688 0.37453125 0 0 Z " fill="#6D933C" transform="translate(566,31)"/>
<path d="M0 0 C0 5.61 0 11.22 0 17 C5.22063275 16.96042843 5.22063275 16.96042843 10.44116211 16.90991211 C12.29433759 16.90276055 14.14749308 16.9497148 16 17 C17 18 17 18 17.1328125 20.87109375 C17.13023437 22.04800781 17.12765625 23.22492188 17.125 24.4375 C17.12757813 25.61183594 17.13015625 26.78617187 17.1328125 27.99609375 C17 31 17 31 16 33 C8.08 33.495 8.08 33.495 0 34 C0 45.88 0 57.76 0 70 C6.34168926 70.05913813 6.34168926 70.05913813 12.4375 69.4375 C14.2009375 69.2209375 14.2009375 69.2209375 16 69 C17.87900728 70.87900728 17.30277505 73.85823825 17.375 76.375 C17.42398438 77.53773438 17.47296875 78.70046875 17.5234375 79.8984375 C17 83 17 83 14.7265625 84.7890625 C13.82679688 85.18867188 12.92703125 85.58828125 12 86 C11.37480469 86.38285156 10.74960937 86.76570313 10.10546875 87.16015625 C4.43311057 89.42278521 -3.12568975 89.00201649 -8.8125 87.01953125 C-13.7430112 84.38397839 -16.84583925 81.62892172 -19.125 76.4375 C-21.53652986 66.9636327 -21.12791355 57.01886466 -21.0625 47.3125 C-21.05798828 46.02666016 -21.05347656 44.74082031 -21.04882812 43.41601562 C-21.03716001 40.27729347 -21.02079015 37.13867272 -21 34 C-21.61488281 34 -22.22976563 34 -22.86328125 34 C-26.90885417 34 -30.95442708 34 -35 34 C-35 34.66 -35 35.32 -35 36 C-35.72445312 36.02578125 -36.44890625 36.0515625 -37.1953125 36.078125 C-44.73005873 36.52016345 -48.61462252 37.61462252 -54 43 C-54.32229877 44.88928114 -54.32229877 44.88928114 -54.30297852 47.06665039 C-54.31962051 47.90414322 -54.33626251 48.74163605 -54.35340881 49.60450745 C-54.36182297 50.50974655 -54.37023712 51.41498566 -54.37890625 52.34765625 C-54.39590073 53.27468857 -54.4128952 54.20172089 -54.43040466 55.15684509 C-54.48365399 58.1253271 -54.52388932 61.09379424 -54.5625 64.0625 C-54.60636045 67.0347047 -54.65300736 70.00679812 -54.70530701 72.97886658 C-54.73737596 74.83063952 -54.76423063 76.68251105 -54.78553772 78.53443909 C-54.88826809 84.88826809 -54.88826809 84.88826809 -56 86 C-57.40348735 86.09860131 -58.81180477 86.13078937 -60.21875 86.1328125 C-61.49298828 86.13474609 -61.49298828 86.13474609 -62.79296875 86.13671875 C-63.68628906 86.13285156 -64.57960938 86.12898438 -65.5 86.125 C-66.39332031 86.12886719 -67.28664063 86.13273437 -68.20703125 86.13671875 C-69.05652344 86.13542969 -69.90601563 86.13414062 -70.78125 86.1328125 C-71.56564453 86.13168457 -72.35003906 86.13055664 -73.15820312 86.12939453 C-75 86 -75 86 -76 85 C-76.04080783 83.00041636 -76.04254356 80.99954746 -76 79 C-76.66 79 -77.32 79 -78 79 C-78.020625 79.928125 -78.04125 80.85625 -78.0625 81.8125 C-79 85 -79 85 -82.125 86.875 C-86.73364463 88.4299492 -90.75142877 89.06511269 -95.30078125 86.91015625 C-96.84822656 86.03639417 -98.37869744 85.13157584 -99.88671875 84.19140625 C-102.04162621 82.97653236 -103.53659864 82.23438188 -106 82 C-108.2867152 82.92640296 -108.2867152 82.92640296 -110.5 84.375 C-117.05418703 88.39280643 -123.06283237 88.75980428 -130.5625 87.3125 C-135.23249228 85.52941204 -139.29079502 83.60306483 -142.10546875 79.31640625 C-144.94327464 72.90802769 -145.04168956 65.41794581 -143.44921875 58.6640625 C-140.62066107 51.66639848 -134.26853431 48.81821095 -127.65234375 46 C-120.32779283 43.45658332 -112.68146743 43.29701674 -105 43 C-105.495 39.535 -105.495 39.535 -106 36 C-112.26090088 33.19493688 -118.43870083 32.89889974 -125.01953125 34.93359375 C-126.89173795 35.65791468 -128.7506545 36.41818025 -130.58984375 37.22265625 C-133.29129387 38.09395054 -134.45428934 38.25625287 -137 37 C-138.08203125 35.109375 -138.08203125 35.109375 -138.8125 32.75 C-139.19341797 31.59757812 -139.19341797 31.59757812 -139.58203125 30.421875 C-140.0747145 27.56707484 -139.92435693 25.74588382 -139 23 C-132.91761843 17.02820719 -122.23422062 15.53426592 -114 15 C-105.75881685 15.45682833 -97.89970602 17.26015687 -91.75097656 23.01635742 C-84.14975369 31.62761451 -85.52685687 44.00925922 -85.75 54.6875 C-85.77010626 56.37172343 -85.7883497 58.05597017 -85.8046875 59.74023438 C-85.84833277 63.82740858 -85.91712773 67.91344071 -86 72 C-83.36 72 -80.72 72 -78 72 C-78 73.98 -78 75.96 -78 78 C-77.34 77.67 -76.68 77.34 -76 77 C-76 57.86 -76 38.72 -76 19 C-63 17 -63 17 -57 17 C-55.03177114 18.96822886 -55.33751619 22.34808709 -55 25 C-52.59529237 23.96941101 -51.07821663 23.08690737 -49.3125 21.125 C-45.99065606 18.07249476 -42.29733848 16.33813921 -38 15 C-34.9375 15.25 -34.9375 15.25 -33 16 C-31.86267574 19.40401948 -32.16010043 21.77456664 -32.9375 25.25 C-33.13214844 26.14203125 -33.32679688 27.0340625 -33.52734375 27.953125 C-33.76130859 28.96632813 -33.76130859 28.96632813 -34 30 C-32.68 30 -31.36 30 -30 30 C-30.020625 28.948125 -30.04125 27.89625 -30.0625 26.8125 C-30.01078731 23.65802577 -29.88636037 21.01362527 -29 18 C-26.04335481 16.5216774 -23.25770263 16.93967217 -20 17 C-20.05800781 16.24074219 -20.11601562 15.48148437 -20.17578125 14.69921875 C-20.24345703 13.20841797 -20.24345703 13.20841797 -20.3125 11.6875 C-20.37050781 10.70136719 -20.42851562 9.71523438 -20.48828125 8.69921875 C-20 6 -20 6 -17.828125 4.28515625 C-15.05018399 3.0228046 -12.29704488 1.81586652 -9.4375 0.75 C-8.50808594 0.39421875 -7.57867187 0.0384375 -6.62109375 -0.328125 C-4 -1 -4 -1 0 0 Z M-124.3125 60.1875 C-126.47170705 63.78617842 -126.68761997 65.87428015 -126 70 C-124.13007417 72.2415942 -124.13007417 72.2415942 -121 73 C-116.29047231 73.04189971 -112.06752622 72.48041045 -108 70 C-105.13295004 65.59703041 -104.59150822 62.20827017 -105 57 C-106.71216126 55.28783874 -108.91807056 55.82808776 -111.25 55.8125 C-112.20390625 55.79832031 -113.1578125 55.78414063 -114.140625 55.76953125 C-118.47097249 56.11856199 -121.15928069 57.20472498 -124.3125 60.1875 Z " fill="#282526" transform="translate(320,271)"/>
<path d="M0 0 C0.2667616 2.76628915 0.34804189 5.30619631 0.29296875 8.0703125 C0.28872391 8.86654022 0.28447906 9.66276794 0.28010559 10.48312378 C0.26328834 13.03075729 0.22563179 15.57760489 0.1875 18.125 C0.17245705 19.85024901 0.15876796 21.57551039 0.14648438 23.30078125 C0.11337501 27.53415782 0.06157285 31.76694559 0 36 C0.92578857 35.63543701 1.85157715 35.27087402 2.80541992 34.89526367 C4.03881104 34.42838135 5.27220215 33.96149902 6.54296875 33.48046875 C8.36477661 32.77893677 8.36477661 32.77893677 10.22338867 32.06323242 C17.28791499 30.07435065 24.03592597 31.20659023 30.66796875 34.20703125 C38.74248442 39.11666138 43.25037313 46.13607126 46 55 C46.4125 56.051875 46.825 57.10375 47.25 58.1875 C49.6274838 70.27304266 46.02668282 80.77919464 39.375 90.75 C33.55707584 98.39209704 25.39170059 103.03583063 16 105 C8.90682225 105.75357538 2.87032925 104.56563414 -3.4375 101.125 C-6.7540769 99.6900029 -6.7540769 99.6900029 -9.04296875 100.69921875 C-10.42335481 101.43732386 -11.78871813 102.20428701 -13.13671875 103 C-15.5248818 104.28169757 -17.33703984 104.40347881 -20 104 C-21.96217033 102.03782967 -21.12694487 99.02595856 -21.13552856 96.41363525 C-21.13350433 95.46502625 -21.1314801 94.51641724 -21.12939453 93.5390625 C-21.13114685 92.54565857 -21.13289917 91.55225464 -21.13470459 90.52874756 C-21.13912511 87.22748088 -21.13618441 83.92626727 -21.1328125 80.625 C-21.13348548 78.34195953 -21.13445546 76.05891913 -21.13571167 73.77587891 C-21.13718891 68.98404256 -21.13503323 64.19222481 -21.13037109 59.40039062 C-21.1246738 53.24283365 -21.12795266 47.08532026 -21.13394356 40.92776489 C-21.13754845 36.21134103 -21.13641091 31.49492759 -21.13381577 26.77850342 C-21.1331463 24.5073852 -21.1339756 22.23626606 -21.13629532 19.96514893 C-21.13882067 16.79705278 -21.1349829 13.62902828 -21.12939453 10.4609375 C-21.13141876 9.51232849 -21.13344299 8.56371948 -21.13552856 7.58636475 C-21.11426224 1.11426224 -21.11426224 1.11426224 -20 0 C-17.20552007 -0.45594146 -14.4335898 -0.84560467 -11.625 -1.1875 C-10.84382813 -1.29513672 -10.06265625 -1.40277344 -9.2578125 -1.51367188 C-3.35461404 -2.23640936 -3.35461404 -2.23640936 0 0 Z M1 52 C-2.3712369 57.05685536 -1.32730673 63.00000235 -1.3125 68.9375 C-1.32861328 70.22591797 -1.34472656 71.51433594 -1.36132812 72.84179688 C-1.36197266 74.07865234 -1.36261719 75.31550781 -1.36328125 76.58984375 C-1.36626221 77.72284912 -1.36924316 78.85585449 -1.37231445 80.02319336 C-0.96037932 83.31678361 -0.33041747 84.67368357 2 87 C7.1671159 88.72237197 12.10599758 88.65561622 17.25 86.875 C22.77363833 83.10888295 25.9946205 78.33277736 28 72 C28.98233583 64.89603482 27.94779589 58.07694423 24 52 C20.46096352 48.96206603 16.54457273 47.80415626 11.9375 47.5 C7.16134963 48.10649528 4.92024795 49.25582644 1 52 Z " fill="#272324" transform="translate(365,255)"/>
<path d="M0 0 C1.81640625 1.66015625 1.81640625 1.66015625 3 4 C2.92578125 7.34765625 2.92578125 7.34765625 2.3125 11.0625 C2.12300781 12.29097656 1.93351562 13.51945312 1.73828125 14.78515625 C1 18 1 18 -1 21 C-4.78075988 20.40481777 -7.69010612 19.29305023 -11.0625 17.5 C-19.41594245 13.07228936 -29.89351042 12.1719928 -39.02734375 14.90625 C-41.52064772 16.10487995 -43.73120504 17.42024647 -46 19 C-46.65484375 19.4228125 -47.3096875 19.845625 -47.984375 20.28125 C-54.2313718 24.87305961 -56.6181829 31.85454869 -59 39 C-59.8023765 51.20664584 -59.02890428 61.54890844 -52 72 C-49.94299284 73.98852653 -49.94299284 73.98852653 -47.625 75.6875 C-46.87476563 76.26886719 -46.12453125 76.85023438 -45.3515625 77.44921875 C-39.88968603 81.05115389 -35.20126909 81.38686111 -28.8125 81.375 C-27.96478027 81.37411377 -27.11706055 81.37322754 -26.24365234 81.37231445 C-19.80908661 81.25068622 -14.64222413 80.23252424 -9 77 C-8.05125 76.505 -7.1025 76.01 -6.125 75.5 C-3.88681243 74.01783015 -3.88681243 74.01783015 -1.875 71.8125 C0 70 0 70 3 70 C4.0625 72.375 4.0625 72.375 5 75 C4.67 75.66 4.34 76.32 4 77 C3.76201499 80.30975448 3.61732114 83.61835735 3.4765625 86.93359375 C3 90 3 90 1.875 91.71875 C-9.44294282 99.45267759 -26.06958422 102.57551662 -39.54296875 100.6015625 C-55.77932381 96.62636587 -67.32285976 88.18454888 -76 74 C-80.37978158 65.77948687 -81.96520988 58.27736481 -82 49 C-82.03480469 48.154375 -82.06960937 47.30875 -82.10546875 46.4375 C-81.98932002 39.6797557 -79.62794201 33.77650112 -77.1875 27.5625 C-76.84404541 26.6852124 -76.50059082 25.8079248 -76.14672852 24.90405273 C-74.30564015 20.43925156 -72.71676224 17.20561616 -69 14 C-68.02933594 12.76443359 -68.02933594 12.76443359 -67.0390625 11.50390625 C-61.18979407 4.32118391 -53.7867549 -0.30728479 -45 -3 C-44.28328125 -3.22429687 -43.5665625 -3.44859375 -42.828125 -3.6796875 C-29.96455715 -7.10684244 -12.06948986 -5.82504337 0 0 Z " fill="#272425" transform="translate(96,259)"/>
<path d="M0 0 C-0.00523682 0.91177002 -0.01047363 1.82354004 -0.01586914 2.76293945 C-0.03307523 6.19784193 -0.04552912 9.63269753 -0.05493164 13.06762695 C-0.05991084 14.5445224 -0.06669663 16.02141305 -0.07543945 17.49829102 C-0.12472428 26.04775812 -0.01214531 34.49546897 1 43 C1.62962646 42.47277344 2.25925293 41.94554687 2.90795898 41.40234375 C10.45144682 35.14227059 10.45144682 35.14227059 16 35 C16 34.34 16 33.68 16 33 C31.88236386 33.6833658 31.88236386 33.6833658 36.8359375 38.953125 C43.69241048 47.18089257 44.3013858 54.17937039 44.23046875 64.5859375 C44.23001053 65.68346344 44.22955231 66.78098938 44.2290802 67.91177368 C44.22607028 70.2196766 44.21822192 72.52757771 44.20581055 74.83544922 C44.18745416 78.38386139 44.18530171 81.93201386 44.18554688 85.48046875 C44.18063505 87.72396061 44.17480821 89.96745069 44.16796875 92.2109375 C44.16685593 93.2775058 44.1657431 94.3440741 44.16459656 95.44296265 C44.15821671 96.42133087 44.15183685 97.3996991 44.14526367 98.40771484 C44.14145187 99.27262543 44.13764008 100.13753601 44.13371277 101.02865601 C44 103 44 103 43 104 C41.59651265 104.09860131 40.18819523 104.13078937 38.78125 104.1328125 C37.50701172 104.13474609 37.50701172 104.13474609 36.20703125 104.13671875 C35.31371094 104.13285156 34.42039063 104.12898438 33.5 104.125 C32.60667969 104.12886719 31.71335938 104.13273437 30.79296875 104.13671875 C29.94347656 104.13542969 29.09398437 104.13414062 28.21875 104.1328125 C27.43435547 104.13168457 26.64996094 104.13055664 25.84179688 104.12939453 C24 104 24 104 23 103 C22.93296688 101.55196169 22.93515352 100.10063181 22.96582031 98.65136719 C22.9901413 97.26422516 22.9901413 97.26422516 23.01495361 95.84906006 C23.03580017 94.84183899 23.05664673 93.83461792 23.078125 92.796875 C23.10539318 90.68100503 23.13139473 88.56511844 23.15625 86.44921875 C23.19945973 83.0999734 23.2499658 79.75158423 23.32226562 76.40283203 C23.38892444 73.17987818 23.42366933 69.95785581 23.453125 66.734375 C23.48206848 65.73525085 23.51101196 64.73612671 23.54083252 63.70672607 C23.55891154 59.00628181 23.53216696 56.73630448 20.71386719 52.83691406 C18.01078394 50.65541117 18.01078394 50.65541117 14.125 50.875 C8.75791086 51.95044697 4.81483256 54.74072438 1.421875 58.96459961 C-0.63445295 63.35442197 -0.37211054 67.32588489 -0.29296875 72.11328125 C-0.28660149 73.56760811 -0.28660149 73.56760811 -0.28010559 75.05131531 C-0.263354 78.138663 -0.22570789 81.22535062 -0.1875 84.3125 C-0.17244863 86.40949576 -0.15876102 88.50650178 -0.14648438 90.60351562 C-0.11346192 95.73593023 -0.06170347 100.86785331 0 106 C-1.485 105.505 -1.485 105.505 -3 105 C-6.6720675 104.74028599 -10.33848727 104.55675791 -14.015625 104.39453125 C-19.89860703 104.10139297 -19.89860703 104.10139297 -21 103 C-21.09533653 99.8949275 -21.12551126 96.81213542 -21.11352539 93.70678711 C-21.11367142 92.73128403 -21.11381744 91.75578094 -21.1139679 90.75071716 C-21.11326833 87.50957047 -21.10547391 84.26848046 -21.09765625 81.02734375 C-21.09579222 78.78674857 -21.09436825 76.54615298 -21.09336853 74.30555725 C-21.08954213 68.3954049 -21.0797108 62.48527695 -21.06866455 56.57513428 C-21.05845306 50.54944183 -21.05387147 44.52374547 -21.04882812 38.49804688 C-21.03808864 26.66535384 -21.02101076 14.83267894 -21 3 C-18.43850372 2.49432271 -15.87600535 1.99529868 -13.3125 1.5 C-12.59126953 1.35691406 -11.87003906 1.21382812 -11.12695312 1.06640625 C-7.36158641 0.34428113 -3.85526187 -0.1824976 0 0 Z " fill="#282425" transform="translate(127,253)"/>
<path d="M0 0 C5.56037095 5.31173647 10.86703936 11.05068274 11.8125 18.9375 C11.85740569 20.91615716 11.85134732 22.89621462 11.8125 24.875 C11.82796875 25.84928955 11.82796875 25.84928955 11.84375 26.84326172 C12.01627773 38.5562773 10.09983501 46.06805052 1.921875 54.921875 C-4.2561305 60.79851438 -12.05349466 65.44803327 -20.7109375 65.9375 C-31.56733442 65.66352153 -40.09544606 63.43985697 -48.21875 56.01953125 C-54.9964708 48.82538269 -57.87875304 40.85360211 -58.3125 31.0625 C-58.3525415 30.18883789 -58.39258301 29.31517578 -58.43383789 28.41503906 C-58.57074951 20.67057256 -56.64697914 15.2428148 -52.1875 8.875 C-51.71828125 8.11960937 -51.2490625 7.36421875 -50.765625 6.5859375 C-46.47031672 0.14297507 -40.75059085 -3.77348278 -33.5625 -6.5 C-21.36377611 -8.84215499 -9.80687328 -7.91661717 0 0 Z M-35.1875 14.875 C-39.07169843 21.57816518 -39.31939104 30.05720736 -37.578125 37.46875 C-36.44748967 41.02217532 -35.26967333 43.75174001 -33.1875 46.875 C-27.68181341 49.12221902 -22.97544544 49.1914312 -17.1875 47.875 C-12.97343349 46.04279717 -11.12238974 44.02119229 -9.1875 39.875 C-6.56942217 32.28257428 -6.58708217 24.52775548 -9.4375 16.9375 C-11.9092521 12.61193383 -14.47577374 10.44557542 -19.1875 8.875 C-26.20464111 8.04245783 -30.39997192 9.54818715 -35.1875 14.875 Z " fill="#282526" transform="translate(542.1875,294.125)"/>
<path d="M0 0 C2.9375 2 2.9375 2 5 4 C5.63679688 4.58265625 6.27359375 5.1653125 6.9296875 5.765625 C12.32197855 11.58522968 16.13853506 20.02038068 16 28 C15.98710937 29.0725 15.97421875 30.145 15.9609375 31.25 C15.64802152 38.8917377 14.3993453 45.13806577 11 52 C10.34 52 9.68 52 9 52 C8.90589844 52.58910156 8.81179688 53.17820312 8.71484375 53.78515625 C6.91696009 59.35564824 0.29316612 63.07365416 -4.5625 65.875 C-13.38354493 69.933763 -22.84674131 70.19625225 -31.9375 66.9375 C-42.7866736 62.04473544 -47.37810487 57.08295268 -52 46 C-52.95168683 43.14493951 -53.1900946 41.09062718 -53.31640625 38.11328125 C-53.35830078 37.17548828 -53.40019531 36.23769531 -53.44335938 35.27148438 C-53.48267578 34.29501953 -53.52199219 33.31855469 -53.5625 32.3125 C-53.60568359 31.32443359 -53.64886719 30.33636719 -53.69335938 29.31835938 C-53.79941654 26.87904454 -53.90147714 24.43962887 -54 22 C-53.34 22 -52.68 22 -52 22 C-51.86464844 21.45472656 -51.72929687 20.90945313 -51.58984375 20.34765625 C-49.74374413 13.88078033 -46.72940853 8.81539778 -42 4 C-41.01 3.67 -40.02 3.34 -39 3 C-38.46375 2.38125 -37.9275 1.7625 -37.375 1.125 C-27.6188889 -7.60415203 -10.83523585 -5.52162106 0 0 Z M-31 17 C-35.46519004 24.63403459 -35.45937083 32.03787927 -33.734375 40.44140625 C-32.34214642 45.29198986 -30.25240698 48.16506201 -26 51 C-19.65704157 52.42169758 -14.8458616 51.96328685 -9 49 C-4.0886991 44.59242227 -3.28213358 38.9906159 -2.6875 32.6875 C-3.39546397 23.59681484 -3.39546397 23.59681484 -7.921875 15.9609375 C-11.40382996 13.4275151 -14.72596667 11.65530896 -19.0625 11.3125 C-23.95478769 12.16670896 -27.32442921 13.64625338 -31 17 Z " fill="#272425" transform="translate(467,291)"/>
<path d="M0 0 C1.4375 1.75 1.4375 1.75 2 4 C1.1015625 7.015625 1.1015625 7.015625 -0.375 10.25 C-0.85710938 11.32765625 -1.33921875 12.4053125 -1.8359375 13.515625 C-2.41214844 14.74539063 -2.41214844 14.74539063 -3 16 C-5.58520121 15.52062494 -7.8398243 15.0711892 -10.25 14 C-15.1064656 12.23401251 -19.9374098 11.52732308 -25 12.6875 C-27.17461514 13.83562776 -27.17461514 13.83562776 -27.8125 16.125 C-27.9053125 17.053125 -27.9053125 17.053125 -28 18 C-24.48494705 20.68254041 -21.60625484 22.21680498 -17.3125 23.3125 C-9.08309887 25.59083647 -2.02504973 30.07659816 3 37 C5.14674968 41.0788244 5.46571236 44.4204951 5 49 C3.36294691 53.30633671 1.12581706 57.59001775 -2 61 C-2.66 61 -3.32 61 -4 61 C-4 61.66 -4 62.32 -4 63 C-15.11205062 69.53650036 -26.6024562 69.90218612 -39 67 C-45.51156545 65.04385071 -45.51156545 65.04385071 -48 63 C-49.09870441 59.49375204 -49.19009441 55.97173309 -49.25 52.3125 C-49.27578125 51.35988281 -49.3015625 50.40726562 -49.328125 49.42578125 C-49.21984375 48.62527344 -49.1115625 47.82476562 -49 47 C-48.01 46.34 -47.02 45.68 -46 45 C-45.236875 45.61875 -44.47375 46.2375 -43.6875 46.875 C-36.76822007 51.46614574 -27.05663222 51.6463343 -19 51 C-17.515 50.505 -17.515 50.505 -16 50 C-14.66666667 47 -14.66666667 47 -16 44 C-18.66647775 42.43475136 -18.66647775 42.43475136 -21.9375 41.0625 C-23.113125 40.53785156 -24.28875 40.01320313 -25.5 39.47265625 C-28.45764078 38.22820248 -31.42392446 37.09793377 -34.4375 36 C-39.94453079 33.84196029 -43.25617667 30.85352909 -46.375 25.75 C-47.9572932 18.78790991 -47.74680267 12.20564193 -44 6 C-32.96603046 -5.26384391 -14.07646325 -8.73711512 0 0 Z " fill="#272325" transform="translate(602,291)"/>
<path d="M0 0 C0.02691685 2.45840605 0.04679802 4.91651882 0.0625 7.375 C0.07087891 8.07367188 0.07925781 8.77234375 0.08789062 9.4921875 C0.11328125 14.7734375 0.11328125 14.7734375 -1 17 C4.94 17 10.88 17 17 17 C16.67 22.28 16.34 27.56 16 33 C13.00520833 33.22786458 10.01041667 33.45572917 7.015625 33.68359375 C3.8068415 33.94913876 3.8068415 33.94913876 0 35 C0 46.55 0 58.1 0 70 C6.34354845 70.05505006 6.34354845 70.05505006 12.5 69.5 C13.655 69.335 14.81 69.17 16 69 C17.75432342 79.89070085 17.75432342 79.89070085 14.875 84.125 C8.85599492 88.0504381 2.5522368 89.81169155 -4.62890625 88.53125 C-10.21517171 86.99939777 -14.9136196 85.42858952 -18.05615234 80.2644043 C-22.22783481 71.39191416 -21.67354955 61.97041987 -21.75 52.375 C-21.77820248 50.58981532 -21.80813578 48.80465711 -21.83984375 47.01953125 C-21.91319995 42.67973547 -21.96308335 38.34025246 -22 34 C-24.97 33.67 -27.94 33.34 -31 33 C-32.23072344 29.30782967 -31.60450995 27.60432686 -30.625 23.875 C-30.34914063 22.79992187 -30.07328125 21.72484375 -29.7890625 20.6171875 C-29 18 -29 18 -28 17 C-25.32941149 16.85884839 -22.67567762 16.95752893 -20 17 C-20.03480469 16.24074219 -20.06960938 15.48148437 -20.10546875 14.69921875 C-20.14607422 13.20841797 -20.14607422 13.20841797 -20.1875 11.6875 C-20.23970703 10.20830078 -20.23970703 10.20830078 -20.29296875 8.69921875 C-20 6 -20 6 -18.765625 4.24609375 C-16.74063901 2.81695541 -14.93042777 2.10175018 -12.5625 1.375 C-11.80066406 1.13523437 -11.03882813 0.89546875 -10.25390625 0.6484375 C-9.51011719 0.43445313 -8.76632812 0.22046875 -8 0 C-7.32839844 -0.21398437 -6.65679688 -0.42796875 -5.96484375 -0.6484375 C-3.68523697 -1.05631943 -2.18568143 -0.70254046 0 0 Z " fill="#262324" transform="translate(636,271)"/>
<path d="M0 0 C0.33 1.32 0.66 2.64 1 4 C0.01 4 -0.98 4 -2 4 C-2.70266613 6.97574276 -2.70266613 6.97574276 -3 10 C-2.01971384 11.34789347 -1.02028865 12.68212715 0 14 C0.33 13.67 0.66 13.34 1 13 C2.99958364 12.95919217 5.00045254 12.95745644 7 13 C3.93496196 16.59808814 0.47290668 18.51805062 -3.62890625 20.70703125 C-5.87773641 21.93332908 -8.02985133 23.24592705 -10.1875 24.625 C-18.68237382 30 -18.68237382 30 -22 30 C-22 30.66 -22 31.32 -22 32 C-24.90600261 33.25664978 -26.79604584 34 -30 34 C-29.45541143 30.02890071 -27.59622644 28.25934584 -24.7734375 25.515625 C-23.90589844 24.66226563 -23.03835938 23.80890625 -22.14453125 22.9296875 C-21.23058594 22.04539063 -20.31664062 21.16109375 -19.375 20.25 C-13.83857265 14.84977998 -8.37426627 9.48106918 -3.36181641 3.58496094 C-2.29419891 2.34240576 -1.15839339 1.15839339 0 0 Z " fill="#739445" transform="translate(435,197)"/>
<path d="M0 0 C1 2 1 2 0.6875 4.0625 C0 6 0 6 -2 7 C-2.6496875 8.60875 -2.6496875 8.60875 -3.3125 10.25 C-4.84561491 14.01310023 -6.84271379 16.38176265 -10 19 C-12.3125 19.8125 -12.3125 19.8125 -14 20 C-14.103125 20.763125 -14.20625 21.52625 -14.3125 22.3125 C-15.05594134 25.21867978 -15.65886963 26.19913049 -18 28 C-18.99 28.33 -19.98 28.66 -21 29 C-21.33 29.66 -21.66 30.32 -22 31 C-22.99 30.67 -23.98 30.34 -25 30 C-24.14277344 29.09378906 -23.28554688 28.18757813 -22.40234375 27.25390625 C-16.27125825 20.73649066 -10.26231557 14.25539967 -5 7 C-4.49597656 6.30648437 -3.99195313 5.61296875 -3.47265625 4.8984375 C-2.30410836 3.27347617 -1.15012297 1.63805392 0 0 Z " fill="#97AB76" transform="translate(468,158)"/>
<path d="M0 0 C0.9590625 0.2784375 0.9590625 0.2784375 1.9375 0.5625 C2.9584375 0.7790625 2.9584375 0.7790625 4 1 C4.33 0.67 4.66 0.34 5 0 C6.85287502 -0.07226502 8.70833878 -0.0838122 10.5625 -0.0625 C11.57441406 -0.05347656 12.58632812 -0.04445313 13.62890625 -0.03515625 C14.80259766 -0.01775391 14.80259766 -0.01775391 16 0 C13.64046906 2.35953094 12.22104383 2.49141413 9 3 C9.99 3.99 10.98 4.98 12 6 C11.01 6 10.02 6 9 6 C9.33 7.32 9.66 8.64 10 10 C5.545 10.495 5.545 10.495 1 11 C1.33 10.01 1.66 9.02 2 8 C1.2236068 4.9254644 1.2236068 4.9254644 -1 3 C-0.67 2.01 -0.34 1.02 0 0 Z M10 7 C12 8 12 8 12 8 Z " fill="#1C1A1B" transform="translate(200,316)"/>
<path d="M0 0 C0.66 0.33 1.32 0.66 2 1 C1.01 1.66 0.02 2.32 -1 3 C-1.25030977 5.58380177 -1.25030977 5.58380177 -1 8 C-1.7425 7.896875 -2.485 7.79375 -3.25 7.6875 C-6.24315526 7.70516807 -6.24315526 7.70516807 -8.0625 10.5 C-8.701875 11.325 -9.34125 12.15 -10 13 C-11.32 13 -12.64 13 -14 13 C-19.30311045 14.84456016 -21.60297624 17.74166674 -24.60546875 22.2578125 C-26 24 -26 24 -29 25 C-25.70750648 15.25690693 -15.4664353 10.14498665 -7.13671875 4.98046875 C-4.65344099 3.41257109 -2.30974259 1.80787259 0 0 Z " fill="#83995E" transform="translate(552,40)"/>
<path d="M0 0 C1.65 0 3.3 0 5 0 C4.99476318 0.90129639 4.98952637 1.80259277 4.98413086 2.73120117 C4.96688241 6.14006211 4.95445097 9.54887532 4.94506836 12.95776367 C4.94010176 14.42098736 4.93332622 15.88420625 4.92456055 17.34741211 C4.87049023 26.618882 5.11168402 35.75931051 6 45 C5.01 45.495 5.01 45.495 4 46 C4 41.71 4 37.42 4 33 C3.34 33 2.68 33 2 33 C0.77384162 27.32901748 0.91853382 21.76599507 1 16 C1 15.01 1 14.02 1 13 C1.66 12.34 2.32 11.68 3 11 C3.46162427 8.56747339 3.46162427 8.56747339 3.625 5.875 C3.69976562 4.96492188 3.77453125 4.05484375 3.8515625 3.1171875 C3.90054688 2.41851562 3.94953125 1.71984375 4 1 C2.68 0.67 1.36 0.34 0 0 Z " fill="#322F31" transform="translate(122,253)"/>
<path d="M0 0 C-0.886875 0.70125 -1.77375 1.4025 -2.6875 2.125 C-4.91550999 3.97299894 -6.56083129 5.67587361 -8.4375 7.9375 C-11.29918691 11.35756485 -14.35578752 14.41141582 -18 17 C-18.66 17 -19.32 17 -20 17 C-20.268125 17.639375 -20.53625 18.27875 -20.8125 18.9375 C-22 21 -22 21 -25 22 C-24.67 20.02 -24.34 18.04 -24 16 C-23.071875 15.87625 -23.071875 15.87625 -22.125 15.75 C-19.83849644 15.21964484 -19.83849644 15.21964484 -19.0625 13.125 C-17.61743515 10.23487031 -15.86218639 9.39618848 -13 8 C-12.01 8 -11.02 8 -10 8 C-10 7.01 -10 6.02 -10 5 C-9.34 5 -8.68 5 -8 5 C-8 4.01 -8 3.02 -8 2 C-3.71900826 -1.23966942 -3.71900826 -1.23966942 0 0 Z " fill="#809B61" transform="translate(522,148)"/>
<path d="M0 0 C0.33 0 0.66 0 1 0 C1.93248069 6.99360519 2.38955715 13.94214105 2 21 C1 22 1 22 -0.85766602 22.11352539 C-1.64842529 22.10828857 -2.43918457 22.10305176 -3.25390625 22.09765625 C-4.10791016 22.09443359 -4.96191406 22.09121094 -5.84179688 22.08789062 C-6.73962891 22.07951172 -7.63746094 22.07113281 -8.5625 22.0625 C-9.46419922 22.05798828 -10.36589844 22.05347656 -11.29492188 22.04882812 C-13.53001314 22.03700225 -15.76497437 22.0205222 -18 22 C-18 21.67 -18 21.34 -18 21 C-17.09636719 20.93941406 -16.19273437 20.87882812 -15.26171875 20.81640625 C-13.49248047 20.69072266 -13.49248047 20.69072266 -11.6875 20.5625 C-9.92986328 20.44068359 -9.92986328 20.44068359 -8.13671875 20.31640625 C-4.97409042 20.1132629 -4.97409042 20.1132629 -2 19 C-1.93941406 17.71222656 -1.87882812 16.42445313 -1.81640625 15.09765625 C-1.73201753 13.41925841 -1.6473687 11.74087364 -1.5625 10.0625 C-1.52318359 9.21236328 -1.48386719 8.36222656 -1.44335938 7.48632812 C-1.40146484 6.67744141 -1.35957031 5.86855469 -1.31640625 5.03515625 C-1.27974854 4.2862915 -1.24309082 3.53742676 -1.20532227 2.76586914 C-1 1 -1 1 0 0 Z " fill="#3B393B" transform="translate(263,335)"/>
<path d="M0 0 C0.66 0.33 1.32 0.66 2 1 C2 11.56 2 22.12 2 33 C1.01 33.495 1.01 33.495 0 34 C-0.19849851 29.83378191 -0.38180993 25.66702543 -0.5625 21.5 C-0.61857422 20.32695312 -0.67464844 19.15390625 -0.73242188 17.9453125 C-0.99083088 11.81240536 -1.01245442 6.0597272 0 0 Z " fill="#191718" transform="translate(152,309)"/>
<path d="M0 0 C0 3.10551666 -0.5393715 4.35261084 -2 7 C1.465 6.505 1.465 6.505 5 6 C2.33440687 7.77706209 -0.0280615 8.87548273 -3 10 C-3 10.66 -3 11.32 -3 12 C-5.90600261 13.25664978 -7.79604584 14 -11 14 C-10.52590352 9.68269587 -7.96603297 7.66352539 -4.9375 4.75 C-4.01839844 3.85796875 -3.09929687 2.9659375 -2.15234375 2.046875 C-1.44207031 1.37140625 -0.73179687 0.6959375 0 0 Z " fill="#96A275" transform="translate(416,217)"/>
<path d="M0 0 C0.33 1.32 0.66 2.64 1 4 C0.01 4 -0.98 4 -2 4 C-2.061875 4.721875 -2.12375 5.44375 -2.1875 6.1875 C-3.2553751 9.88399074 -5.10819816 11.53138868 -8 14 C-8.66 14 -9.32 14 -10 14 C-10.28875 14.61875 -10.5775 15.2375 -10.875 15.875 C-12 18 -12 18 -14 20 C-16.125 19.625 -16.125 19.625 -18 19 C-17.43152344 18.443125 -16.86304688 17.88625 -16.27734375 17.3125 C-11.80504888 12.89246901 -7.49556157 8.40969971 -3.41015625 3.62890625 C-2.32370902 2.37392427 -1.17374345 1.17374345 0 0 Z " fill="#99AB79" transform="translate(435,197)"/>
<path d="M0 0 C2.56687367 3.8503105 1.83288724 5.58569763 1 10 C-1.31 10.66 -3.62 11.32 -6 12 C-6 12.66 -6 13.32 -6 14 C-6.66 14 -7.32 14 -8 14 C-8.66 15.65 -9.32 17.3 -10 19 C-10.66 19 -11.32 19 -12 19 C-10.17520143 15.04128398 -7.80201931 11.46200295 -5.4375 7.8125 C-5.02564453 7.17119141 -4.61378906 6.52988281 -4.18945312 5.86914062 C-1.13502139 1.13502139 -1.13502139 1.13502139 0 0 Z " fill="#7C9953" transform="translate(492,125)"/>
<path d="M0 0 C2.38686847 1.92489393 2.32547994 2.72313287 2.6875 5.6875 C2.81125 7.605625 2.81125 7.605625 2.9375 9.5625 C2.2775 9.5625 1.6175 9.5625 0.9375 9.5625 C0.6075 7.9125 0.2775 6.2625 -0.0625 4.5625 C-1.66835493 5.18314937 -3.27212617 5.8091918 -4.875 6.4375 C-5.76832031 6.78554688 -6.66164063 7.13359375 -7.58203125 7.4921875 C-10.23961591 8.55082155 -10.23961591 8.55082155 -13.0625 10.5625 C-13.3925 9.5725 -13.7225 8.5825 -14.0625 7.5625 C-12.43865858 6.41502535 -10.81338944 5.2695709 -9.1875 4.125 C-8.28257812 3.48691406 -7.37765625 2.84882812 -6.4453125 2.19140625 C-2.47246062 -0.52446134 -2.47246062 -0.52446134 0 0 Z " fill="#7E995A" transform="translate(568.0625,31.4375)"/>
<path d="M0 0 C0.33 0.66 0.66 1.32 1 2 C1.66 2 2.32 2 3 2 C3.3690205 18.70842825 3.3690205 18.70842825 1 27 C0.67 27 0.34 27 0 27 C-0.19551338 25.39679026 -0.38111983 23.79237014 -0.5625 22.1875 C-0.66691406 21.29417969 -0.77132812 20.40085937 -0.87890625 19.48046875 C-1 17 -1 17 0 14 C-0.11142614 11.78819121 -0.28496109 9.57914885 -0.5 7.375 C-0.70606587 5.25345819 -0.8827384 3.12829803 -1 1 C-0.67 0.67 -0.34 0.34 0 0 Z " fill="#1F1E1E" transform="translate(124,315)"/>
<path d="M0 0 C0.66 0 1.32 0 2 0 C2 1.32 2 2.64 2 4 C0.02 4 -1.96 4 -4 4 C-3.67 4.99 -3.34 5.98 -3 7 C-6.4019487 9.09350689 -9.05272412 9.17942163 -13 9 C-13.33 9.99 -13.66 10.98 -14 12 C-16.0625 13.1875 -16.0625 13.1875 -18 14 C-18 13.01 -18 12.02 -18 11 C-13.38277081 7.18576719 -8.43004486 4.58896401 -3.0390625 2.015625 C-1.05748458 1.16337872 -1.05748458 1.16337872 0 0 Z " fill="#7D965C" transform="translate(580,125)"/>
<path d="M0 0 C0.66 0.33 1.32 0.66 2 1 C1.125 6.75 1.125 6.75 0 9 C-0.66 9 -1.32 9 -2 9 C-1.938125 10.11375 -1.938125 10.11375 -1.875 11.25 C-2.00781957 14.17203056 -2.34963181 15.60696612 -4 18 C-5.32520503 18.68268138 -6.65812182 19.3507041 -8 20 C-8.33 20.99 -8.66 21.98 -9 23 C-9.66 23 -10.32 23 -11 23 C-9.36398217 18.56305113 -7.19721972 14.5144508 -4.9375 10.375 C-2.15558526 5.33187494 -2.15558526 5.33187494 0 0 Z " fill="#87A068" transform="translate(515,82)"/>
<path d="M0 0 C0.33 0.66 0.66 1.32 1 2 C0.01 2.495 0.01 2.495 -1 3 C-1.33 3.99 -1.66 4.98 -2 6 C-3.6635479 6.67441131 -5.33066942 7.3400321 -7 8 C-7.680625 8.680625 -8.36125 9.36125 -9.0625 10.0625 C-11.10334587 12.10334587 -12.19511388 12.59930198 -15 13 C-15 13.66 -15 14.32 -15 15 C-16.65 15 -18.3 15 -20 15 C-19.34 14.67 -18.68 14.34 -18 14 C-17.67 13.01 -17.34 12.02 -17 11 C-11.77777778 8 -11.77777778 8 -9 8 C-8.67 7.01 -8.34 6.02 -8 5 C-6.15234375 3.61328125 -6.15234375 3.61328125 -3.9375 2.3125 C-3.20402344 1.87550781 -2.47054688 1.43851563 -1.71484375 0.98828125 C-1.14894531 0.66214844 -0.58304687 0.33601562 0 0 Z " fill="#91A674" transform="translate(494,194)"/>
<path d="M0 0 C0 0.66 0 1.32 0 2 C-0.66 2 -1.32 2 -2 2 C-1.67 2.99 -1.34 3.98 -1 5 C-2.66342837 6.66342837 -4.7825709 6.36048097 -7.0625 6.5625 C-7.98160156 6.64628906 -8.90070313 6.73007813 -9.84765625 6.81640625 C-10.55792969 6.87699219 -11.26820313 6.93757812 -12 7 C-12 7.99 -12 8.98 -12 10 C-14.64 10 -17.28 10 -20 10 C-16.57544124 7.20356382 -12.81870229 5.25995711 -8.875 3.3125 C-8.24207031 2.99216797 -7.60914063 2.67183594 -6.95703125 2.34179688 C-2.25346482 0 -2.25346482 0 0 0 Z " fill="#8DA46C" transform="translate(423,238)"/>
<path d="M0 0 C0.66 0.33 1.32 0.66 2 1 C0.66666667 2.66666667 -0.66666667 4.33333333 -2 6 C-2.680625 6.9075 -3.36125 7.815 -4.0625 8.75 C-6 11 -6 11 -9 12 C-10.70855022 15.00007271 -10.70855022 15.00007271 -12 18 C-13.65 18 -15.3 18 -17 18 C-16.1875 16.0625 -16.1875 16.0625 -15 14 C-14.01 13.67 -13.02 13.34 -12 13 C-12 12.34 -12 11.68 -12 11 C-10.390625 9.66796875 -10.390625 9.66796875 -8.25 8.1875 C-4.91151642 5.77834607 -2.39442742 3.39210552 0 0 Z " fill="#96AC7D" transform="translate(525,166)"/>
<path d="M0 0 C0.99 0 1.98 0 3 0 C1.98822759 8.26082413 0.723632 16.11962476 -2 24 C-2.33 24 -2.66 24 -3 24 C-3 20.04 -3 16.08 -3 12 C-2.01 11.67 -1.02 11.34 0 11 C-0.185625 9.9275 -0.37125 8.855 -0.5625 7.75 C-0.9304568 4.59608454 -1.04465343 2.90181508 0 0 Z " fill="#8CA66E" transform="translate(612,217)"/>
<path d="M0 0 C0.33 0.66 0.66 1.32 1 2 C-1.92607798 6.2765755 -4.07200123 7.57635591 -9 9 C-9.33 9.66 -9.66 10.32 -10 11 C-13.28976808 12.09658936 -14.71303767 11.79953138 -18 11 C-14.38967046 8.12510796 -10.58739825 6.25498209 -6.4375 4.28125 C-4.08186236 3.04303022 -2.07818655 1.65485226 0 0 Z " fill="#839A60" transform="translate(449,223)"/>
<path d="M0 0 C0.33 0 0.66 0 1 0 C0.52279768 9.78264757 -0.29573212 19.33696657 -2 29 C-2.33 29 -2.66 29 -3 29 C-3.08845016 25.85434954 -3.14086835 22.70902625 -3.1875 19.5625 C-3.21263672 18.68400391 -3.23777344 17.80550781 -3.26367188 16.90039062 C-3.33209102 10.71986094 -2.32816113 5.72459913 0 0 Z " fill="#A2B888" transform="translate(620,174)"/>
<path d="M0 0 C4.00758119 7.31819173 5.47654599 15.73986956 5 24 C0.70078162 19.70078162 0.22683499 11.20346561 -0.19140625 5.296875 C-0.1882286 3.53010047 -0.10581635 1.76360575 0 0 Z " fill="#9EB182" transform="translate(616,135)"/>
<path d="M0 0 C0.33 0 0.66 0 1 0 C1.04898438 0.92683594 1.09796875 1.85367187 1.1484375 2.80859375 C1.22320312 4.00613281 1.29796875 5.20367187 1.375 6.4375 C1.44460937 7.63246094 1.51421875 8.82742188 1.5859375 10.05859375 C1.72257812 11.02925781 1.85921875 11.99992187 2 13 C2.66 13.33 3.32 13.66 4 14 C4 16.53300059 3.90181119 18.9786919 3.6875 21.5 C3.60048828 22.66015625 3.60048828 22.66015625 3.51171875 23.84375 C3 26 3 26 0 29 C0 19.43 0 9.86 0 0 Z " fill="#6D6C6D" transform="translate(107,286)"/>
<path d="M0 0 C1 2 1 2 0.6875 4.0625 C0 6 0 6 -2 7 C-2.6496875 8.6396875 -2.6496875 8.6396875 -3.3125 10.3125 C-4.77112743 13.96658727 -6.71287989 15.7789729 -10 18 C-9.85418676 12.31328368 -7.16443786 9.24887165 -3.69140625 5.05078125 C-1.86340704 2.90504805 -1.86340704 2.90504805 0 0 Z " fill="#8AA568" transform="translate(468,158)"/>
<path d="M0 0 C5.28 0 10.56 0 16 0 C15.67 3.96 15.34 7.92 15 12 C14.34 12 13.68 12 13 12 C13 12.66 13 13.32 13 14 C12.34 14 11.68 14 11 14 C11.33 13.01 11.66 12.02 12 11 C12.66 11 13.32 11 14 11 C14 8.69 14 6.38 14 4 C13.34 3.67 12.68 3.34 12 3 C12 2.67 12 2.34 12 2 C8.04 1.67 4.08 1.34 0 1 C0 0.67 0 0.34 0 0 Z " fill="#868484" transform="translate(637,288)"/>
<path d="M0 0 C-3.38208239 3.58102841 -6.69676146 6.56773474 -11 9 C-11.99 8.67 -12.98 8.34 -14 8 C-13.01 7.67 -12.02 7.34 -11 7 C-11 6.01 -11 5.02 -11 4 C-7.42516166 0.32001935 -5.07810442 -0.47238181 0 0 Z " fill="#89A06A" transform="translate(482,182)"/>
<path d="M0 0 C0.99 0.66 1.98 1.32 3 2 C1.80100302 5.0831351 0.52299523 8.06279492 -1 11 C-1.66 11 -2.32 11 -3 11 C-3.33 11.66 -3.66 12.32 -4 13 C-4.36972539 5.4822505 -4.36972539 5.4822505 -2.5625 3.125 C-1.7890625 2.568125 -1.7890625 2.568125 -1 2 C-0.67 1.34 -0.34 0.68 0 0 Z " fill="#1B181A" transform="translate(20,292)"/>
<path d="M0 0 C0.66 0.33 1.32 0.66 2 1 C0.09755718 4.51951921 -1.49237283 6.99564162 -5 9 C-8.25 9.6875 -8.25 9.6875 -11 10 C-9.37660195 8.29115995 -7.70680947 6.62553283 -6 5 C-5.34 5 -4.68 5 -4 5 C-4 4.34 -4 3.68 -4 3 C-2 1.375 -2 1.375 0 0 Z " fill="#87A061" transform="translate(506,184)"/>
<path d="M0 0 C0.66 0.33 1.32 0.66 2 1 C-1.65461928 5.49699606 -5.25880554 9.62848394 -10 13 C-10.99 12.67 -11.98 12.34 -13 12 C-9.67131569 7.82484614 -6.79333736 4.52981694 -2 2 C-1.34 1.34 -0.68 0.68 0 0 Z " fill="#92A875" transform="translate(540,153)"/>
<path d="M0 0 C-3.19572219 2.78955127 -5.77152656 3.59857414 -9.9375 4.25 C-10.95714844 4.42015625 -11.97679687 4.5903125 -13.02734375 4.765625 C-15.94543527 4.99569792 -18.18021598 4.72701614 -21 4 C-21 3.67 -21 3.34 -21 3 C-18.6263603 2.49265716 -16.25142575 1.99397614 -13.875 1.5 C-13.20984375 1.35691406 -12.5446875 1.21382813 -11.859375 1.06640625 C-7.83943578 0.2387717 -4.10095101 -0.15330658 0 0 Z " fill="#545253" transform="translate(650,355)"/>
<path d="M0 0 C0.99 0.33 1.98 0.66 3 1 C2.34 8.26 1.68 15.52 1 23 C0.34 22.67 -0.32 22.34 -1 22 C-1.0270817 19.27076612 -1.04687847 16.54180363 -1.0625 13.8125 C-1.07087891 13.04357422 -1.07925781 12.27464844 -1.08789062 11.48242188 C-1.10491934 7.51473211 -0.98604115 3.87428766 0 0 Z " fill="#1C1A1B" transform="translate(362,309)"/>
<path d="M0 0 C2.91635211 4.37452817 3.09105409 8.80232913 3 14 C1.5625 17.1875 1.5625 17.1875 0 19 C-0.66 18.67 -1.32 18.34 -2 18 C-2 17.01 -2 16.02 -2 15 C-1.34 14.67 -0.68 14.34 0 14 C0 9.38 0 4.76 0 0 Z " fill="#9EB182" transform="translate(578,65)"/>
<path d="M0 0 C2 1 2 1 3 3 C5.12576782 3.46651207 5.12576782 3.46651207 7.5625 3.625 C8.38878906 3.69976562 9.21507813 3.77453125 10.06640625 3.8515625 C10.70449219 3.90054687 11.34257813 3.94953125 12 4 C12 4.33 12 4.66 12 5 C-0.66970387 6.33257403 -0.66970387 6.33257403 -6 5 C-5.01 4.67 -4.02 4.34 -3 4 C-3 3.34 -3 2.68 -3 2 C-2.01 1.34 -1.02 0.68 0 0 Z " fill="#393839" transform="translate(60,354)"/>
<path d="M0 0 C0.66 1.32 1.32 2.64 2 4 C1.21625 4.5775 0.4325 5.155 -0.375 5.75 C-3.06479539 7.73682561 -3.06479539 7.73682561 -4 10.1875 C-5 12 -5 12 -7.5 12.875 C-8.7375 12.936875 -8.7375 12.936875 -10 13 C-10.66 12.34 -11.32 11.68 -12 11 C-11.0925 10.608125 -10.185 10.21625 -9.25 9.8125 C-4.80237201 7.33209208 -2.77882445 4.16823667 0 0 Z " fill="#5B5A5B" transform="translate(391,331)"/>
<path d="M0 0 C0.66 0 1.32 0 2 0 C2.33 0.66 2.66 1.32 3 2 C4.32 2 5.64 2 7 2 C6.07161713 3.31896465 5.13194268 4.62998689 4.1875 5.9375 C3.40439453 7.03384766 3.40439453 7.03384766 2.60546875 8.15234375 C1 10 1 10 -2 11 C-1.125 7.125 -1.125 7.125 0 6 C0.04080783 4.00041636 0.04254356 1.99954746 0 0 Z " fill="#85A25F" transform="translate(545,113)"/>
<path d="M0 0 C0.55171875 0.23589844 1.1034375 0.47179687 1.671875 0.71484375 C1.115 1.10671875 0.558125 1.49859375 -0.015625 1.90234375 C-2.6716455 3.98408955 -4.97677451 6.29817797 -7.328125 8.71484375 C-7.988125 8.05484375 -8.648125 7.39484375 -9.328125 6.71484375 C-10.318125 6.71484375 -11.308125 6.71484375 -12.328125 6.71484375 C-10.75638425 5.51204214 -9.17024942 4.328031 -7.578125 3.15234375 C-6.69640625 2.49105469 -5.8146875 1.82976562 -4.90625 1.1484375 C-2.328125 -0.28515625 -2.328125 -0.28515625 0 0 Z " fill="#545253" transform="translate(191.328125,318.28515625)"/>
<path d="M0 0 C1.010625 0.0825 2.02125 0.165 3.0625 0.25 C3.7225 1.24 4.3825 2.23 5.0625 3.25 C0.6075 4.735 0.6075 4.735 -3.9375 6.25 C-3.980221 4.58388095 -3.97813832 2.91617115 -3.9375 1.25 C-2.9375 0.25 -2.9375 0.25 0 0 Z " fill="#484646" transform="translate(610.9375,287.75)"/>
<path d="M0 0 C-1.29299694 2.88437779 -2.65941363 4.87219421 -5 7 C-6.5625 5.75 -6.5625 5.75 -8 4 C-7.8125 1.875 -7.8125 1.875 -7 0 C-4.3333581 -1.33332095 -2.83319697 -0.67102033 0 0 Z " fill="#7B9751" transform="translate(577,83)"/>
<path d="M0 0 C2.12493141 -0.02693575 4.24995912 -0.04636628 6.375 -0.0625 C7.55835938 -0.07410156 8.74171875 -0.08570313 9.9609375 -0.09765625 C13 0 13 0 15 1 C15 1.66 15 2.32 15 3 C10.38 3 5.76 3 1 3 C0.67 2.01 0.34 1.02 0 0 Z " fill="#474546" transform="translate(313,356)"/>
<path d="M0 0 C3.3 0.33 6.6 0.66 10 1 C10 1.33 10 1.66 10 2 C8.989375 2.061875 7.97875 2.12375 6.9375 2.1875 C1.54332731 2.93303606 -2.24656603 6.24656603 -6 10 C-5.75 7.125 -5.75 7.125 -5 4 C-3 2.75 -3 2.75 -1 2 C-0.67 1.34 -0.34 0.68 0 0 Z " fill="#474747" transform="translate(134,302)"/>
<path d="M0 0 C-0.39803561 2.88575819 -0.79009069 3.82189513 -3.0625 5.75 C-3.701875 6.1625 -4.34125 6.575 -5 7 C-5.66 6.67 -6.32 6.34 -7 6 C-7 5.34 -7 4.68 -7 4 C-6.34 4 -5.68 4 -5 4 C-5 3.34 -5 2.68 -5 2 C-5.99 2.33 -6.98 2.66 -8 3 C-8 2.34 -8 1.68 -8 1 C-5.29120665 -0.35439668 -2.99066732 -0.06501451 0 0 Z " fill="#4B4849" transform="translate(299,288)"/>
<path d="M0 0 C0 3.10551666 -0.5393715 4.35261084 -2 7 C1.465 6.505 1.465 6.505 5 6 C1.96474514 8.02350324 0.80573798 8.32124018 -2.6875 8.625 C-3.49574219 8.69976562 -4.30398438 8.77453125 -5.13671875 8.8515625 C-6.05904297 8.92503906 -6.05904297 8.92503906 -7 9 C-5.27845212 5.23511958 -3.00765886 2.84936103 0 0 Z " fill="#879C68" transform="translate(416,217)"/>
<path d="M0 0 C0.66 0.99 1.32 1.98 2 3 C1.071875 3.763125 0.14375 4.52625 -0.8125 5.3125 C-2.98276101 7.11848552 -5.05568065 8.9476629 -7 11 C-8 8 -8 8 -7.375 5.9375 C-5.5970802 3.43224937 -3.84247068 3.02037409 -1 2 C-0.67 1.34 -0.34 0.68 0 0 Z " fill="#839B5E" transform="translate(529,136)"/>
<path d="M0 0 C0.66 0 1.32 0 2 0 C2.34615998 5.65394631 1.43425238 9.03006806 -1 14 C-2.62433191 11.49923002 -3.07333427 10.41017471 -2.5390625 7.421875 C-2.23742187 6.54015625 -1.93578125 5.6584375 -1.625 4.75 C-1.32851563 3.85796875 -1.03203125 2.9659375 -0.7265625 2.046875 C-0.48679687 1.37140625 -0.24703125 0.6959375 0 0 Z " fill="#544B50" transform="translate(605,333)"/>
<path d="M0 0 C0.94875 0.350625 1.8975 0.70125 2.875 1.0625 C2.545 2.0525 2.215 3.0425 1.875 4.0625 C-1.125 5.0625 -1.125 5.0625 -5.125 5.0625 C-5.125 3.4125 -5.125 1.7625 -5.125 0.0625 C-3.125 -0.9375 -3.125 -0.9375 0 0 Z " fill="#343233" transform="translate(599.125,289.9375)"/>
<path d="M0 0 C0.33 0 0.66 0 1 0 C1.05383848 2.45862401 1.09359038 4.9160755 1.125 7.375 C1.14175781 8.07367188 1.15851562 8.77234375 1.17578125 9.4921875 C1.19344267 11.32897486 1.10303261 13.16601963 1 15 C0.34 15.66 -0.32 16.32 -1 17 C-2.0533573 11.49913409 -2.06625257 6.52081885 -1 1 C-0.67 0.67 -0.34 0.34 0 0 Z " fill="#0C0A0B" transform="translate(634,272)"/>
<path d="M0 0 C0.33 1.32 0.66 2.64 1 4 C0.01 4 -0.98 4 -2 4 C-2.061875 4.721875 -2.12375 5.44375 -2.1875 6.1875 C-3.24456647 9.84657625 -5.20550071 11.49211602 -8 14 C-8.66 13.67 -9.32 13.34 -10 13 C-8.89966185 11.39320484 -7.79457336 9.78966207 -6.6875 8.1875 C-6.07261719 7.29417969 -5.45773437 6.40085938 -4.82421875 5.48046875 C-3.32284963 3.43899254 -1.85214599 1.71537213 0 0 Z " fill="#8FA466" transform="translate(435,197)"/>
<path d="M0 0 C0.33 0.66 0.66 1.32 1 2 C0.67 2.66 0.34 3.32 0 4 C-0.66 4 -1.32 4 -2 4 C-2.33 5.65 -2.66 7.3 -3 9 C-3.66 9 -4.32 9 -5 9 C-5.33 10.65 -5.66 12.3 -6 14 C-7.32 13.67 -8.64 13.34 -10 13 C-9.60167969 12.55269531 -9.20335937 12.10539063 -8.79296875 11.64453125 C-5.81467695 8.24594523 -3.21435805 4.96253546 -1 1 C-0.67 0.67 -0.34 0.34 0 0 Z " fill="#9BB084" transform="translate(479,144)"/>
<path d="M0 0 C0.33 0 0.66 0 1 0 C1.1875 2.3125 1.1875 2.3125 1 5 C-0.4375 6.6875 -0.4375 6.6875 -2 8 C-2.33 8.66 -2.66 9.32 -3 10 C-3.66 10 -4.32 10 -5 10 C-5.66 11.65 -6.32 13.3 -7 15 C-7.66 15 -8.32 15 -9 15 C-7.38340534 11.58809167 -5.45729895 8.43782465 -3.4375 5.25 C-2.50744141 3.77273437 -2.50744141 3.77273437 -1.55859375 2.265625 C-1.04425781 1.51796875 -0.52992188 0.7703125 0 0 Z " fill="#96AC74" transform="translate(489,129)"/>
<path d="M0 0 C0.99 0.33 1.98 0.66 3 1 C2.34 2.65 1.68 4.3 1 6 C-2.55780196 5.39009109 -5.6828589 4.4216319 -9 3 C-7.68 2.34 -6.36 1.68 -5 1 C-3.68 1.99 -2.36 2.98 -1 4 C-0.67 2.68 -0.34 1.36 0 0 Z " fill="#4D4B4C" transform="translate(598,301)"/>
<path d="M0 0 C0.66 0.33 1.32 0.66 2 1 C-1.96 4.465 -1.96 4.465 -6 8 C-7.32 7.34 -8.64 6.68 -10 6 C-9.01 5.67 -8.02 5.34 -7 5 C-6.34 4.34 -5.68 3.68 -5 3 C-3 1 -3 1 0 0 Z M-9 8 C-8.34 8.66 -7.68 9.32 -7 10 C-7.66 10 -8.32 10 -9 10 C-9 9.34 -9 8.68 -9 8 Z " fill="#413F40" transform="translate(435,289)"/>
<path d="M0 0 C4.95 0 9.9 0 15 0 C15.33 1.32 15.66 2.64 16 4 C14.35 4.66 12.7 5.32 11 6 C11.33 4.35 11.66 2.7 12 1 C8.04 1 4.08 1 0 1 C0 0.67 0 0.34 0 0 Z " fill="#797878" transform="translate(321,288)"/>
<path d="M0 0 C4.99911924 0.47610659 7.97832683 2.03162219 12 5 C9.63986261 5.84290621 8.40341668 6.13867449 6 5.3125 C3.68017287 3.79011344 1.88933339 2.02428577 0 0 Z " fill="#333232" transform="translate(457,288)"/>
<path d="M0 0 C5.445 1.485 5.445 1.485 11 3 C11 3.33 11 3.66 11 4 C10.09507813 4.09087891 10.09507813 4.09087891 9.171875 4.18359375 C7.97304687 4.30927734 7.97304687 4.30927734 6.75 4.4375 C5.96109375 4.51871094 5.1721875 4.59992188 4.359375 4.68359375 C2.17635361 4.97634993 0.1226818 5.42064419 -2 6 C-1.34 4.02 -0.68 2.04 0 0 Z " fill="#3F3D3D" transform="translate(58,268)"/>
<path d="M0 0 C-1.375 2.5 -1.375 2.5 -3 5 C-3.66 5 -4.32 5 -5 5 C-5 4.34 -5 3.68 -5 3 C-9.455 3.495 -9.455 3.495 -14 4 C-8.94212432 0.62808288 -6.22090367 -0.23926553 0 0 Z " fill="#363435" transform="translate(58,256)"/>
<path d="M0 0 C0.66 0.33 1.32 0.66 2 1 C1.01 1.66 0.02 2.32 -1 3 C-1.25030977 5.58380177 -1.25030977 5.58380177 -1 8 C-3.97 8 -6.94 8 -10 8 C-7.76718268 5.76718268 -5.85658836 4.08856169 -3.3125 2.3125 C-2.68988281 1.87550781 -2.06726563 1.43851563 -1.42578125 0.98828125 C-0.95527344 0.66214844 -0.48476563 0.33601563 0 0 Z " fill="#93A876" transform="translate(552,40)"/>
<path d="M0 0 C0 4.95 0 9.9 0 15 C-0.33 15 -0.66 15 -1 15 C-1.33 10.71 -1.66 6.42 -2 2 C-4.97 1.505 -4.97 1.505 -8 1 C-4.59449725 -1.06762667 -4.18836538 -1.04709135 0 0 Z M-7 2 C-6.01 2.495 -6.01 2.495 -5 3 C-5.99 3.495 -5.99 3.495 -7 4 C-7 3.34 -7 2.68 -7 2 Z " fill="#535153" transform="translate(636,271)"/>
<path d="M0 0 C0.66 0 1.32 0 2 0 C1.67 5.61 1.34 11.22 1 17 C0.67 17 0.34 17 0 17 C-0.19561869 14.9174133 -0.38119313 12.83388144 -0.5625 10.75 C-0.66691406 9.58984375 -0.77132812 8.4296875 -0.87890625 7.234375 C-0.98198087 4.48128523 -0.86213473 2.580018 0 0 Z " fill="#747273" transform="translate(552,319)"/>
<path d="M0 0 C0.99 0 1.98 0 3 0 C2.67 2.97 2.34 5.94 2 9 C1.01 8.67 0.02 8.34 -1 8 C-1 4.88742431 -0.82638376 2.89234315 0 0 Z " fill="#131213" transform="translate(362,333)"/>
<path d="M0 0 C0.680625 0.165 1.36125 0.33 2.0625 0.5 C5.4164822 1.07089059 8.60389805 1.06659023 12 1 C9.28817788 3.60334924 8.10866187 3.99456691 4.25 4.1875 C3.1775 4.125625 2.105 4.06375 1 4 C0.67 2.68 0.34 1.36 0 0 Z " fill="#111010" transform="translate(289,301)"/>
<path d="M0 0 C2.08304538 -0.05418326 4.16649768 -0.09287551 6.25 -0.125 C7.99023438 -0.15980469 7.99023438 -0.15980469 9.765625 -0.1953125 C12.82786046 -0.0103949 14.44202751 0.39176977 17 2 C16.34 2.66 15.68 3.32 15 4 C12.375 3.625 12.375 3.625 10 3 C10 2.34 10 1.68 10 1 C6.7 1 3.4 1 0 1 C0 0.67 0 0.34 0 0 Z " fill="#90A277" transform="translate(590,122)"/>
<path d="M0 0 C-4.75890529 2.37945265 -7.54838765 3.10095578 -13 3 C-13 2.01 -13 1.02 -13 0 C-12.05125 0.020625 -11.1025 0.04125 -10.125 0.0625 C-0.54508197 -0.12909836 -0.54508197 -0.12909836 0 0 Z " fill="#525152" transform="translate(240,356)"/>
<path d="M0 0 C0.33 0 0.66 0 1 0 C1 2.64 1 5.28 1 8 C-5.93 7.505 -5.93 7.505 -13 7 C-13 6.67 -13 6.34 -13 6 C-7.555 5.505 -7.555 5.505 -2 5 C-1.34 3.35 -0.68 1.7 0 0 Z " fill="#161415" transform="translate(125,349)"/>
<path d="M0 0 C0.99 0 1.98 0 3 0 C2.34 4.62 1.68 9.24 1 14 C0.67 14 0.34 14 0 14 C-0.19627391 12.41773035 -0.38165538 10.83410729 -0.5625 9.25 C-0.66691406 8.36828125 -0.77132812 7.4865625 -0.87890625 6.578125 C-0.99456676 4.11567549 -0.73638695 2.33461936 0 0 Z " fill="#94AD7D" transform="translate(612,217)"/>
<path d="M0 0 C1.75570312 0.01353516 1.75570312 0.01353516 3.546875 0.02734375 C4.43890625 0.03894531 5.3309375 0.05054687 6.25 0.0625 C6.25 0.3925 6.25 0.7225 6.25 1.0625 C4.97125 1.18625 3.6925 1.31 2.375 1.4375 C-1.09790936 1.75292399 -1.09790936 1.75292399 -3.75 4.0625 C-3.75 3.4025 -3.75 2.7425 -3.75 2.0625 C-4.6471875 2.371875 -4.6471875 2.371875 -5.5625 2.6875 C-7.75 3.0625 -7.75 3.0625 -10.75 1.0625 C-7.14006828 -0.07230527 -3.7657673 -0.03765767 0 0 Z " fill="#7B9456" transform="translate(593.75,122.9375)"/>
<path d="M0 0 C2 4 2 4 1.625 6.25 C1.41875 6.8275 1.2125 7.405 1 8 C3.64 8 6.28 8 9 8 C9 8.33 9 8.66 9 9 C5.7 9 2.4 9 -1 9 C-0.67 6.03 -0.34 3.06 0 0 Z " fill="#161515" transform="translate(245,347)"/>
<path d="M0 0 C1.32 0.33 2.64 0.66 4 1 C3.44855089 5.08072342 3.08669204 5.91330796 0 9 C0 6.03 0 3.06 0 0 Z " fill="#3A3738" transform="translate(345,280)"/>
<path d="M0 0 C1.32 0 2.64 0 4 0 C4 3.63 4 7.26 4 11 C3.34 10.67 2.68 10.34 2 10 C2 7.36 2 4.72 2 2 C1.34 2 0.68 2 0 2 C0 1.34 0 0.68 0 0 Z " fill="#151414" transform="translate(122,254)"/>
<path d="M0 0 C0.99 0.33 1.98 0.66 3 1 C1.54744301 4.82946843 -0.42895561 6.12050295 -4 8 C-4.33 7.01 -4.66 6.02 -5 5 C-4.01 5 -3.02 5 -2 5 C-1.7834375 4.0409375 -1.7834375 4.0409375 -1.5625 3.0625 C-1 1 -1 1 0 0 Z " fill="#8DA472" transform="translate(538,126)"/>
<path d="M0 0 C4.15882353 8.02058824 4.15882353 8.02058824 3.625 11.3125 C3.41875 11.869375 3.2125 12.42625 3 13 C3 12.01 3 11.02 3 10 C2.01 10.33 1.02 10.66 0 11 C-0.19491452 9.54263913 -0.38069358 8.08405407 -0.5625 6.625 C-0.66691406 5.81289063 -0.77132812 5.00078125 -0.87890625 4.1640625 C-1 2 -1 2 0 0 Z " fill="#92A878" transform="translate(574,52)"/>
<path d="M0 0 C2.30143236 3.45214853 2.13833854 4.23479324 1.625 8.1875 C1.51414062 9.08855469 1.40328125 9.98960937 1.2890625 10.91796875 C1.19367188 11.60503906 1.09828125 12.29210937 1 13 C0.67 13 0.34 13 0 13 C-0.98248196 8.94726192 -1.16017882 5.16464926 -1 1 C-0.67 0.67 -0.34 0.34 0 0 Z " fill="#110F10" transform="translate(431,317)"/>
<path d="M0 0 C0.33 0 0.66 0 1 0 C1.33 3.96 1.66 7.92 2 12 C2.99 12 3.98 12 5 12 C3.68 13.32 2.36 14.64 1 16 C-1.49310643 12.26034036 -1.0603261 10.70929359 -0.625 6.3125 C-0.51414062 5.13300781 -0.40328125 3.95351563 -0.2890625 2.73828125 C-0.19367188 1.83464844 -0.09828125 0.93101562 0 0 Z " fill="#151214" transform="translate(125,286)"/>
<path d="M0 0 C-0.99 0.33 -1.98 0.66 -3 1 C-3.33 1.66 -3.66 2.32 -4 3 C-4.33 3.66 -4.66 4.32 -5 5 C-5.99 5.33 -6.98 5.66 -8 6 C-7.67 4.02 -7.34 2.04 -7 0 C-3.98968256 -0.93423645 -3.13349732 -1.04449911 0 0 Z " fill="#8FA374" transform="translate(505,164)"/>
<path d="M0 0 C0.99 0.33 1.98 0.66 3 1 C0.03 4.96 0.03 4.96 -3 9 C-4 5 -4 5 -3 3 C-2.34 3 -1.68 3 -1 3 C-0.67 2.01 -0.34 1.02 0 0 Z " fill="#93A66C" transform="translate(560,101)"/>
<path d="M0 0 C0.33 0.66 0.66 1.32 1 2 C0.07161713 3.31896465 -0.86805732 4.62998689 -1.8125 5.9375 C-2.59560547 7.03384766 -2.59560547 7.03384766 -3.39453125 8.15234375 C-5 10 -5 10 -8 11 C-6.52670958 5.99081256 -3.72484762 3.48192278 0 0 Z " fill="#9BB081" transform="translate(531,54)"/>
<path d="M0 0 C1.36511719 0.29197266 1.36511719 0.29197266 2.7578125 0.58984375 C3.45648437 0.74582031 4.15515625 0.90179688 4.875 1.0625 C1.52172361 3.29801759 0.96756343 3.23533528 -2.8125 2.6875 C-3.62074219 2.57664062 -4.42898438 2.46578125 -5.26171875 2.3515625 C-5.87660156 2.25617188 -6.49148438 2.16078125 -7.125 2.0625 C-7.125 1.4025 -7.125 0.7425 -7.125 0.0625 C-4.4030754 -1.2984623 -2.9418043 -0.64116248 0 0 Z " fill="#464546" transform="translate(517.125,356.9375)"/>
<path d="M0 0 C0.99 0 1.98 0 3 0 C3 0.99 3 1.98 3 3 C3.928125 3.1546875 3.928125 3.1546875 4.875 3.3125 C7 4 7 4 9 7 C8.34 7.66 7.68 8.32 7 9 C4.03595495 6.19195732 1.55500981 3.81684226 0 0 Z " fill="#363435" transform="translate(25,339)"/>
<path d="M0 0 C0.66 0.33 1.32 0.66 2 1 C1.835 1.556875 1.67 2.11375 1.5 2.6875 C0.95958649 5.18691249 0.92917935 7.45045662 1 10 C0.34 10 -0.32 10 -1 10 C-1.33 7.03 -1.66 4.06 -2 1 C-1.34 0.67 -0.68 0.34 0 0 Z " fill="#1E1C1D" transform="translate(18,316)"/>
<path d="M0 0 C0.66 1.32 1.32 2.64 2 4 C-0.64 4.33 -3.28 4.66 -6 5 C-5.67 3.68 -5.34 2.36 -5 1 C-3.35 0.67 -1.7 0.34 0 0 Z " fill="#708E45" transform="translate(420,219)"/>
<path d="M0 0 C0.66 0 1.32 0 2 0 C2.33 1.32 2.66 2.64 3 4 C2.01 4.33 1.02 4.66 0 5 C-0.33 6.65 -0.66 8.3 -1 10 C-1.66 10 -2.32 10 -3 10 C-2.01 6.7 -1.02 3.4 0 0 Z " fill="#8DA16D" transform="translate(522,66)"/>
<path d="M0 0 C0.66 0.33 1.32 0.66 2 1 C0.68 3.64 -0.64 6.28 -2 9 C-4 6 -4 6 -3.8125 3.9375 C-3 2 -3 2 0 0 Z " fill="#1C1A1B" transform="translate(182,324)"/>
<path d="M0 0 C3.465 1.485 3.465 1.485 7 3 C4 5 4 5 0.8125 4.625 C-0.115625 4.41875 -1.04375 4.2125 -2 4 C-1.34 2.68 -0.68 1.36 0 0 Z " fill="#383738" transform="translate(533,289)"/>
<path d="M0 0 C0.33 0.66 0.66 1.32 1 2 C-0.625 4.5 -0.625 4.5 -3 7 C-6.25 7.3125 -6.25 7.3125 -9 7 C-6.3765992 4.08511023 -3.28183606 2.11496102 0 0 Z " fill="#8DA674" transform="translate(449,223)"/>
<path d="M0 0 C0.33 0.99 0.66 1.98 1 3 C-1.35968744 5.09749995 -2.54616994 5.96905704 -5.75 6.1875 C-6.86375 6.0946875 -6.86375 6.0946875 -8 6 C-5.51047079 3.33264727 -3.36591866 1.44253657 0 0 Z " fill="#91A470" transform="translate(473,209)"/>
<path d="M0 0 C2.97 0.495 2.97 0.495 6 1 C4.6875 3 4.6875 3 3 5 C2.01 5 1.02 5 0 5 C-0.33 4.01 -0.66 3.02 -1 2 C-0.67 1.34 -0.34 0.68 0 0 Z " fill="#1D1A1B" transform="translate(567,353)"/>
<path d="M0 0 C3.465 1.98 3.465 1.98 7 4 C6.67 4.66 6.34 5.32 6 6 C5.01 6 4.02 6 3 6 C2.01 6.33 1.02 6.66 0 7 C0.66 5.35 1.32 3.7 2 2 C1.34 2 0.68 2 0 2 C0 1.34 0 0.68 0 0 Z " fill="#4A4949" transform="translate(555,336)"/>
<path d="M0 0 C0.33 0 0.66 0 1 0 C1.2226746 1.43534841 1.42761906 2.87345525 1.625 4.3125 C1.74101563 5.11300781 1.85703125 5.91351563 1.9765625 6.73828125 C2 9 2 9 0 12 C-1.31157516 9.37684968 -0.89649988 7.76966564 -0.5625 4.875 C-0.46066406 3.96492188 -0.35882813 3.05484375 -0.25390625 2.1171875 C-0.17011719 1.41851562 -0.08632813 0.71984375 0 0 Z " fill="#100E0F" transform="translate(34,299)"/>
<path d="M0 0 C0.99 0.33 1.98 0.66 3 1 C2.67 2.32 2.34 3.64 2 5 C0.02 5.33 -1.96 5.66 -4 6 C-2.68 4.02 -1.36 2.04 0 0 Z " fill="#323031" transform="translate(424,296)"/>
<path d="M0 0 C0.99 0 1.98 0 3 0 C3 0.66 3 1.32 3 2 C3.66 2 4.32 2 5 2 C5 2.66 5 3.32 5 4 C3.35 4.66 1.7 5.32 0 6 C-0.38218767 4.34385343 -0.71395102 2.67542976 -1 1 C-0.67 0.67 -0.34 0.34 0 0 Z " fill="#333030" transform="translate(574,299)"/>
<path d="M0 0 C5.875 2.75 5.875 2.75 7 5 C3.44219804 4.39009109 0.3171411 3.4216319 -3 2 C-2.01 1.34 -1.02 0.68 0 0 Z " fill="#474445" transform="translate(434,354)"/>
<path d="M0 0 C0.66 0 1.32 0 2 0 C2.33 2.31 2.66 4.62 3 7 C1.68 7.33 0.36 7.66 -1 8 C-0.67 5.36 -0.34 2.72 0 0 Z " fill="#1A1919" transform="translate(151,344)"/>
<path d="M0 0 C0 0.66 0 1.32 0 2 C-6.93 1.505 -6.93 1.505 -14 1 C-14 0.67 -14 0.34 -14 0 C-12.04235617 -0.19456705 -10.08384679 -0.38044247 -8.125 -0.5625 C-6.48917969 -0.71912109 -6.48917969 -0.71912109 -4.8203125 -0.87890625 C-2 -1 -2 -1 0 0 Z " fill="#171415" transform="translate(79,341)"/>
<path d="M0 0 C0 0.99 0 1.98 0 3 C-2.5 5.1875 -2.5 5.1875 -5 7 C-6.32 6.34 -7.64 5.68 -9 5 C-6.03 3.35 -3.06 1.7 0 0 Z " fill="#454444" transform="translate(92,333)"/>
<path d="M0 0 C1.32 0.33 2.64 0.66 4 1 C3.45276317 4.37462715 2.9451 6.08235 1 9 C0.67 6.03 0.34 3.06 0 0 Z " fill="#3B3A3B" transform="translate(106,256)"/>
<path d="M0 0 C1.65 0 3.3 0 5 0 C3.8125 2 3.8125 2 2 4 C-0.6875 4.25 -0.6875 4.25 -3 4 C-2.34 3.67 -1.68 3.34 -1 3 C-0.67 2.01 -0.34 1.02 0 0 Z " fill="#859F5E" transform="translate(439,193)"/>
<path d="M0 0 C0.33 0.99 0.66 1.98 1 3 C0.01 3.33 -0.98 3.66 -2 4 C-2.33 4.99 -2.66 5.98 -3 7 C-4.32 6.67 -5.64 6.34 -7 6 C-5.6875 4.5 -5.6875 4.5 -4 3 C-3.01 3 -2.02 3 -1 3 C-0.67 2.01 -0.34 1.02 0 0 Z " fill="#789154" transform="translate(447,186)"/>
<path d="M0 0 C-1.24546405 3.73639216 -2.63404953 4.18756513 -6 6 C-6 4.35 -6 2.7 -6 1 C-3 0 -3 0 0 0 Z " fill="#95A97D" transform="translate(495,171)"/>
<path d="M0 0 C0.598125 0.350625 1.19625 0.70125 1.8125 1.0625 C1.8125 2.0525 1.8125 3.0425 1.8125 4.0625 C-1.45704202 3.49878586 -3.01325883 2.56287734 -5.1875 0.0625 C-2.1875 -0.9375 -2.1875 -0.9375 0 0 Z " fill="#2E2D2D" transform="translate(312.1875,353.9375)"/>
<path d="M0 0 C0.33 0 0.66 0 1 0 C1.125 7.75 1.125 7.75 0 10 C-0.99 9.67 -1.98 9.34 -3 9 C-2.67 7.68 -2.34 6.36 -2 5 C-1.67 5 -1.34 5 -1 5 C-0.67 3.35 -0.34 1.7 0 0 Z " fill="#848384" transform="translate(336,294)"/>
<path d="M0 0 C0.66 0.33 1.32 0.66 2 1 C-0.3125 3.5 -0.3125 3.5 -3 6 C-3.99 6 -4.98 6 -6 6 C-4 4 -2 2 0 0 Z " fill="#95AD7D" transform="translate(567,132)"/>
<path d="M0 0 C0 1.32 0 2.64 0 4 C-2.64 4.33 -5.28 4.66 -8 5 C-3.22727273 0 -3.22727273 0 0 0 Z " fill="#A2B389" transform="translate(582,125)"/>
<path d="M0 0 C0.99 0.99 1.98 1.98 3 3 C2.0409375 3.6496875 2.0409375 3.6496875 1.0625 4.3125 C-1.26746003 5.91239177 -1.26746003 5.91239177 -2 9 C-2.66 9 -3.32 9 -4 9 C-2.80100302 5.9168649 -1.52299523 2.93720508 0 0 Z " fill="#9BAC76" transform="translate(508,96)"/>
<path d="M0 0 C0.99 0.33 1.98 0.66 3 1 C3 2.65 3 4.3 3 6 C2.01 6.33 1.02 6.66 0 7 C0 4.69 0 2.38 0 0 Z " fill="#171415" transform="translate(344,349)"/>
<path d="M0 0 C0.33 0 0.66 0 1 0 C0.125 7.75 0.125 7.75 -1 10 C-1.66 10 -2.32 10 -3 10 C-2.67 8.02 -2.34 6.04 -2 4 C-1.34 4 -0.68 4 0 4 C0 2.68 0 1.36 0 0 Z " fill="#484758" transform="translate(411,325)"/>
<path d="M0 0 C0 2.97 0 5.94 0 9 C-0.66 8.67 -1.32 8.34 -2 8 C-2.40729228 5.67843403 -2.74438677 3.3431213 -3 1 C-1 0 -1 0 0 0 Z " fill="#373536" transform="translate(36,308)"/>
<path d="M0 0 C1.37562854 1.28965176 2.70766393 2.62689293 4 4 C4 4.66 4 5.32 4 6 C2.125 5.6875 2.125 5.6875 0 5 C-0.66 4.01 -1.32 3.02 -2 2 C-1.34 2 -0.68 2 0 2 C0 1.34 0 0.68 0 0 Z " fill="#413F40" transform="translate(403,296)"/>
<path d="M0 0 C1.32 0.33 2.64 0.66 4 1 C3.67 1.99 3.34 2.98 3 4 C2.67 4 2.34 4 2 4 C1.67 5.65 1.34 7.3 1 9 C0.67 9 0.34 9 0 9 C0 6.03 0 3.06 0 0 Z " fill="#585858" transform="translate(300,278)"/>
<path d="M0 0 C1.32 0.33 2.64 0.66 4 1 C1.69 2.65 -0.62 4.3 -3 6 C-3.66 5.67 -4.32 5.34 -5 5 C-4.67 4.01 -4.34 3.02 -4 2 C-2.68 2 -1.36 2 0 2 C0 1.34 0 0.68 0 0 Z " fill="#97B47A" transform="translate(449,203)"/>
<path d="M0 0 C1.32 0.33 2.64 0.66 4 1 C2.35 2.65 0.7 4.3 -1 6 C-1.66 4.68 -2.32 3.36 -3 2 C-2.01 1.67 -1.02 1.34 0 1 C0 0.67 0 0.34 0 0 Z " fill="#9EB188" transform="translate(465,191)"/>
<path d="M0 0 C0.33 0.99 0.66 1.98 1 3 C-1 5 -1 5 -3.625 5.125 C-4.40875 5.08375 -5.1925 5.0425 -6 5 C-2.25 1.125 -2.25 1.125 0 0 Z " fill="#93A779" transform="translate(549,146)"/>
<path d="M0 0 C0.33 1.32 0.66 2.64 1 4 C-0.98 4.99 -2.96 5.98 -5 7 C-5.33 6.01 -5.66 5.02 -6 4 C-4.02 2.68 -2.04 1.36 0 0 Z " fill="#88A06C" transform="translate(560,35)"/>
<path d="M0 0 C0 1.65 0 3.3 0 5 C-0.99 5 -1.98 5 -3 5 C-3 4.01 -3 3.02 -3 2 C-3.99 1.67 -4.98 1.34 -6 1 C-4 0 -4 0 0 0 Z " fill="#1D191A" transform="translate(31,337)"/>
<path d="M0 0 C0.928125 0.20625 1.85625 0.4125 2.8125 0.625 C2.4825 1.615 2.1525 2.605 1.8125 3.625 C-0.8275 2.965 -3.4675 2.305 -6.1875 1.625 C-3.1875 -0.375 -3.1875 -0.375 0 0 Z " fill="#535353" transform="translate(76.1875,270.375)"/>
<path d="M0 0 C0.78375 0.04125 1.5675 0.0825 2.375 0.125 C0.01207344 2.65088702 -1.28962511 4.01320837 -4.625 5.125 C-4.625 1.22254579 -3.95783286 0.18846823 0 0 Z " fill="#98AA7D" transform="translate(426.625,217.875)"/>
<path d="M0 0 C1.65 0 3.3 0 5 0 C2.63707344 2.52588702 1.33537489 3.88820837 -2 5 C-2.66 4.34 -3.32 3.68 -4 3 C-2.68 3 -1.36 3 0 3 C0 2.01 0 1.02 0 0 Z " fill="#8FA773" transform="translate(437,210)"/>
<path d="M0 0 C-0.33 1.32 -0.66 2.64 -1 4 C-2.98 4.33 -4.96 4.66 -7 5 C-2.25 0 -2.25 0 0 0 Z " fill="#91A778" transform="translate(502,189)"/>
<path d="M0 0 C1.80330533 3.60661066 2.46599103 6.08393425 3 10 C2.01 9.67 1.02 9.34 0 9 C0 6.03 0 3.06 0 0 Z " fill="#92AA76" transform="translate(616,135)"/>
<path d="M0 0 C0.33 0.66 0.66 1.32 1 2 C0.06421005 4.35981813 -0.93347808 6.69631264 -2 9 C-2.66 9 -3.32 9 -4 9 C-2.94124926 5.59687262 -1.99097846 2.98646769 0 0 Z " fill="#8EA775" transform="translate(497,116)"/>
<path d="M0 0 C0.66 0 1.32 0 2 0 C1.1875 2.4375 1.1875 2.4375 0 5 C-0.99 5.33 -1.98 5.66 -3 6 C-2.42655063 3.13275314 -2.1385485 2.1385485 0 0 Z " fill="#94A774" transform="translate(546,118)"/>
<path d="M0 0 C0.99 0.33 1.98 0.66 3 1 C2.67 1.99 2.34 2.98 2 4 C-0.5625 5.1875 -0.5625 5.1875 -3 6 C-1.125 1.125 -1.125 1.125 0 0 Z " fill="#708F48" transform="translate(500,114)"/>
</svg>
