<?xml version="1.0" encoding="UTF-8"?>
<svg version="1.1" xmlns="http://www.w3.org/2000/svg" width="200" height="200">
<path d="M0 0 C1.42033063 1.2007757 2.81480985 2.43254058 4.1875 3.6875 C5.52554688 4.88826172 5.52554688 4.88826172 6.890625 6.11328125 C20.57712026 19.0331832 29.89189354 36.56234529 30.48828125 55.61328125 C30.50272756 57.74214207 30.50645512 59.87109995 30.5 62 C30.51611328 63.05123047 30.53222656 64.10246094 30.54882812 65.18554688 C30.56125289 85.40064229 21.68255006 103.50165895 7.984375 118.05078125 C-7.64594231 132.78606642 -27.33457817 140.43786836 -48.71826172 140.15576172 C-66.7890227 139.45208887 -84.35276556 132.95588318 -97.8125 120.6875 C-98.63105469 119.96046875 -99.44960937 119.2334375 -100.29296875 118.484375 C-106.88247624 112.30359642 -111.4274519 105.54999322 -115.8125 97.6875 C-116.42738281 96.67623047 -116.42738281 96.67623047 -117.0546875 95.64453125 C-125.63947479 80.57124194 -126.27039401 59.83231559 -122.3125 43.3125 C-118.84878074 31.37919159 -113.2014378 19.92253239 -104.8125 10.6875 C-104.17054687 9.95402344 -103.52859375 9.22054687 -102.8671875 8.46484375 C-76.02925338 -20.4032662 -31.21913763 -23.06778198 0 0 Z M-48.8125 28.6875 C-49.740625 29.244375 -50.66875 29.80125 -51.625 30.375 C-56.20744134 35.21929513 -58.04583398 40.62932634 -58.3125 47.25 C-58.0084973 53.66088055 -56.59377851 58.08869106 -51.84765625 62.5234375 C-46.3027238 66.74902662 -40.30710989 69.34631759 -33.81518555 71.73486328 C-28.98944485 73.51055515 -28.98944485 73.51055515 -26.8125 75.6875 C-26.6875 78.8125 -26.6875 78.8125 -26.8125 81.6875 C-30.0625 82.4375 -30.0625 82.4375 -33.8125 82.6875 C-37.28470568 80.22040649 -37.75889997 78.90190011 -38.8125 74.6875 C-45.4125 74.6875 -52.0125 74.6875 -58.8125 74.6875 C-58.8125 82.61413822 -58.3298992 86.45265641 -53.8125 92.6875 C-44.88615208 100.54967477 -35.42483873 100.44829373 -24.06005859 99.90966797 C-17.41852274 99.2531616 -12.72708001 95.97957379 -8.3125 91.1875 C-4.11791611 86.01743148 -3.3410418 80.96806803 -3.515625 74.46484375 C-4.09372352 69.05657999 -5.79586616 65.57182983 -9.77734375 61.8515625 C-15.3222762 57.62597338 -21.31789011 55.02868241 -27.80981445 52.64013672 C-32.63555515 50.86444485 -32.63555515 50.86444485 -34.8125 48.6875 C-35 45.625 -35 45.625 -34.8125 42.6875 C-33.8125 41.6875 -33.8125 41.6875 -31.96484375 41.58984375 C-29.9140625 41.62239583 -27.86328125 41.65494792 -25.8125 41.6875 C-25.1525 44.3275 -24.4925 46.9675 -23.8125 49.6875 C-17.2125 49.6875 -10.6125 49.6875 -3.8125 49.6875 C-3.8125 41.76086178 -4.2951008 37.92234359 -8.8125 31.6875 C-17.57220587 23.9721007 -26.56810249 24.03678677 -37.70605469 24.49951172 C-41.97043183 24.88008316 -45.2879003 26.34592566 -48.8125 28.6875 Z M-82.8125 25.6875 C-82.8125 30.6375 -82.8125 35.5875 -82.8125 40.6875 C-76.5425 40.6875 -70.2725 40.6875 -63.8125 40.6875 C-63.8125 35.7375 -63.8125 30.7875 -63.8125 25.6875 C-70.0825 25.6875 -76.3525 25.6875 -82.8125 25.6875 Z M-82.8125 46.6875 C-83.71468375 51.19841873 -83.82654059 54.76300638 -83.65234375 59.28515625 C-83.83275285 61.99129279 -84.28011834 63.45377752 -85.8125 65.6875 C-87.9375 66.9375 -87.9375 66.9375 -89.8125 67.6875 C-89.9477403 69.28934626 -90.04460847 70.89446626 -90.125 72.5 C-90.18300781 73.39332031 -90.24101563 74.28664063 -90.30078125 75.20703125 C-90.05908203 76.43486328 -90.05908203 76.43486328 -89.8125 77.6875 C-88.99652344 78.12191406 -88.18054688 78.55632812 -87.33984375 79.00390625 C-86.50582031 79.55949219 -85.67179687 80.11507812 -84.8125 80.6875 C-84.29643475 83.57386497 -84.06757348 85.92569256 -84.0625 88.8125 C-84.40478515 93.63583799 -84.40478515 93.63583799 -82.8125 97.6875 C-81.39922053 97.84370555 -79.9789541 97.93806173 -78.55859375 98.00390625 C-77.70458984 98.04580078 -76.85058594 98.08769531 -75.97070312 98.13085938 C-75.07287109 98.17017578 -74.17503906 98.20949219 -73.25 98.25 C-72.34830078 98.29318359 -71.44660156 98.33636719 -70.51757812 98.38085938 C-68.28271515 98.48728142 -66.04773692 98.58929988 -63.8125 98.6875 C-63.73111574 95.81192297 -63.67182149 92.93867738 -63.625 90.0625 C-63.59986328 89.25425781 -63.57472656 88.44601563 -63.54882812 87.61328125 C-63.48702218 82.54519409 -63.93294532 79.05046163 -66.8125 74.6875 C-67.8025 74.0275 -68.7925 73.3675 -69.8125 72.6875 C-69.008125 71.924375 -68.20375 71.16125 -67.375 70.375 C-64.19871293 67.0437721 -63.68344166 64.88472579 -63.71484375 60.45703125 C-63.71734131 59.73362549 -63.71983887 59.01021973 -63.72241211 58.26489258 C-63.73151611 57.35247803 -63.74062012 56.44006348 -63.75 55.5 C-63.7809375 51.1378125 -63.7809375 51.1378125 -63.8125 46.6875 C-70.0825 46.6875 -76.3525 46.6875 -82.8125 46.6875 Z " fill="#010F9F" transform="translate(146.8125,37.3125)"/>
<path d="M0 0 C2.5 1.75 2.5 1.75 5 4 C5 8 5 8 4 9.9375 C2.79282567 12.42729706 2.84818347 14.2673025 3 17 C3.33 16.01 3.66 15.02 4 14 C4.99 13.67 5.98 13.34 7 13 C8.68538601 11.00334686 8.68538601 11.00334686 10 9 C10.66 9.33 11.32 9.66 12 10 C11.6390625 10.59425781 11.278125 11.18851563 10.90625 11.80078125 C7.27813101 18.28100489 5.88300301 23.58825955 7 31 C8.34746524 34.45346148 8.34746524 34.45346148 10 37 C10 37.66 10 38.32 10 39 C10.86818359 39.42539063 10.86818359 39.42539063 11.75390625 39.859375 C13.85848081 40.92813286 15.89239166 42.07239443 17.9375 43.25 C22.90976388 46.04275488 28.06654538 48.35815286 33.27734375 50.66796875 C36 52 36 52 38 54 C38.3125 57 38.3125 57 38 60 C35 62 35 62 31.5 61.875 C28 61 28 61 26.0625 59.1875 C25 57 25 57 25 53 C18.4 53 11.8 53 5 53 C6.25541796 62.13031242 8.2624846 68.55712813 15 75 C11.66272214 73.82744291 9.22562513 72.81131596 7 70 C7 69.34 7 68.68 7 68 C5.68 68 4.36 68 3 68 C2.67 70.97 2.34 73.94 2 77 C1.34 77 0.68 77 0 77 C-0.04898438 75.75863281 -0.09796875 74.51726562 -0.1484375 73.23828125 C-0.22349799 71.59633306 -0.29904439 69.95440703 -0.375 68.3125 C-0.4059375 67.49587891 -0.436875 66.67925781 -0.46875 65.83789062 C-0.7420839 60.21176782 -1.17516958 55.98584487 -5.125 51.6875 C-5.74375 51.130625 -6.3625 50.57375 -7 50 C-5.7934375 49.6596875 -5.7934375 49.6596875 -4.5625 49.3125 C-3.716875 48.879375 -2.87125 48.44625 -2 48 C-0.57237813 43.43161002 -0.66664445 38.44128359 -0.4375 33.6875 C-0.293125 30.820625 -0.14875 27.95375 0 25 C-6.27 25 -12.54 25 -19 25 C-18.88203301 29.71184538 -18.88203301 29.71184538 -18.72973633 34.42260742 C-18.6745676 38.81534308 -19.22651921 41.56709021 -22 45 C-23.485 45.495 -23.485 45.495 -25 46 C-25.33 49.3 -25.66 52.6 -26 56 C-25.195625 56.309375 -24.39125 56.61875 -23.5625 56.9375 C-21 58 -21 58 -20 59 C-19.92680379 61.69654854 -19.90757463 64.36691458 -19.9375 67.0625 C-19.94201172 67.82111328 -19.94652344 68.57972656 -19.95117188 69.36132812 C-19.9629932 71.24091871 -19.98092922 73.12046899 -20 75 C-20.33 75 -20.66 75 -21 75 C-21.495 67.575 -21.495 67.575 -22 60 C-22.99 59.67 -23.98 59.34 -25 59 C-25 58.34 -25 57.68 -25 57 C-25.99 56.67 -26.98 56.34 -28 56 C-28 51.71 -28 47.42 -28 43 C-27.34 43 -26.68 43 -26 43 C-25.67 42.01 -25.34 41.02 -25 40 C-24.01 40 -23.02 40 -22 40 C-22.144375 39.04738281 -22.28875 38.09476563 -22.4375 37.11328125 C-22.623125 35.85902344 -22.80875 34.60476562 -23 33.3125 C-23.185625 32.07113281 -23.37125 30.82976562 -23.5625 29.55078125 C-24.16314455 24.67590719 -23.97980505 20.78459547 -23 16 C-22.78459917 13.73164316 -22.59820914 11.46038646 -22.4375 9.1875 C-22.35371094 8.02605469 -22.26992188 6.86460938 -22.18359375 5.66796875 C-22.12300781 4.78753906 -22.06242187 3.90710937 -22 3 C-19.33446563 2.11148854 -17.5579683 1.83268722 -14.8046875 1.71875 C-14.00675781 1.68136719 -13.20882812 1.64398438 -12.38671875 1.60546875 C-10.7044408 1.53482877 -9.02214895 1.46451929 -7.33984375 1.39453125 C-3.34620992 1.5974149 -3.34620992 1.5974149 0 0 Z M-19 4 C-19 8.95 -19 13.9 -19 19 C-12.73 19 -6.46 19 0 19 C0 14.05 0 9.1 0 4 C-6.27 4 -12.54 4 -19 4 Z " fill="#040F87" transform="translate(83,59)"/>
<path d="M0 0 C2 0.25 2 0.25 4 1 C4.495 2.485 4.495 2.485 5 4 C6.12341797 4.11988281 6.12341797 4.11988281 7.26953125 4.2421875 C12.1599735 5.59947763 14.39171791 9.86573844 17 14 C19.06657991 19.12152413 19.28135386 23.56049203 19 29 C18 30 18 30 14.4375 30.0625 C13.303125 30.041875 12.16875 30.02125 11 30 C9.95614304 32.65404064 9.95614304 32.65404064 10 36 C11.4259929 37.98528951 12.97977233 39.60576566 14.75 41.2890625 C16 43 16 43 15.6875 45.2109375 C15.460625 45.80132812 15.23375 46.39171875 15 47 C14.505 46.113125 14.01 45.22625 13.5 44.3125 C8.79633487 37.41055839 0.72589236 34.90793492 -6.80786133 32.14257812 C-13.00634491 29.81585592 -13.00634491 29.81585592 -15 27 C-15.3125 23.9375 -15.3125 23.9375 -15 21 C-13 19 -13 19 -10.0625 18.6875 C-7 19 -7 19 -5.1875 20.125 C-4 22 -4 22 -3 28 C3.6 28 10.2 28 17 28 C15.92319516 20.16869209 14.86877592 12.75528905 8.2578125 7.65625 C0.09789559 2.75329563 -9.77490381 3.12263628 -19 4 C-22.34240681 4.93315926 -25.03906925 6.23196222 -28 8 C-28.99 8.33 -29.98 8.66 -31 9 C-31.33 8.01 -31.66 7.02 -32 6 C-31.21625 5.71125 -30.4325 5.4225 -29.625 5.125 C-26.90328368 4.15087746 -26.90328368 4.15087746 -25 2 C-22.58569336 1.69702148 -22.58569336 1.69702148 -19.58984375 1.62109375 C-17.98206055 1.56985352 -17.98206055 1.56985352 -16.34179688 1.51757812 C-15.21837891 1.49115234 -14.09496094 1.46472656 -12.9375 1.4375 C-10.71733278 1.37783856 -8.49726627 1.31425513 -6.27734375 1.24609375 C-5.28984131 1.22216553 -4.30233887 1.1982373 -3.28491211 1.17358398 C-1.03503039 1.25220064 -1.03503039 1.25220064 0 0 Z " fill="#060C73" transform="translate(126,59)"/>
<path d="M0 0 C0.66 0.33 1.32 0.66 2 1 C2.05429278 3.70860665 2.09381211 6.41610901 2.125 9.125 C2.15013672 10.26582031 2.15013672 10.26582031 2.17578125 11.4296875 C2.21546246 16.03270731 1.75907577 19.66464004 0 24 C8.3230205 25.14302815 16.63051177 26.25166929 25 27 C25 27.33 25 27.66 25 28 C18.4 28 11.8 28 5 28 C6.25541796 37.13031242 8.2624846 43.55712813 15 50 C11.66272214 48.82744291 9.22562513 47.81131596 7 45 C7 44.34 7 43.68 7 43 C5.68 43 4.36 43 3 43 C2.67 45.97 2.34 48.94 2 52 C1.34 52 0.68 52 0 52 C-0.04898438 50.75863281 -0.09796875 49.51726562 -0.1484375 48.23828125 C-0.22349799 46.59633306 -0.29904439 44.95440703 -0.375 43.3125 C-0.4059375 42.49587891 -0.436875 41.67925781 -0.46875 40.83789062 C-0.7420839 35.21176782 -1.17516958 30.98584487 -5.125 26.6875 C-5.74375 26.130625 -6.3625 25.57375 -7 25 C-6.195625 24.773125 -5.39125 24.54625 -4.5625 24.3125 C-3.716875 23.879375 -2.87125 23.44625 -2 23 C-0.57221011 18.43107234 -0.66637701 13.44138807 -0.4375 8.6875 C-0.37272461 7.43356445 -0.37272461 7.43356445 -0.30664062 6.15429688 C-0.20114693 4.10303065 -0.10012685 2.0515352 0 0 Z " fill="#050B7D" transform="translate(83,84)"/>
<path d="M0 0 C1.98 0 3.96 0 6 0 C6.07347656 0.99580078 6.07347656 0.99580078 6.1484375 2.01171875 C6.22320312 2.89472656 6.29796875 3.77773437 6.375 4.6875 C6.44460937 5.55761719 6.51421875 6.42773438 6.5859375 7.32421875 C7.42115336 12.72160428 9.67568847 16.13994573 13.125 20.3125 C13.84945312 21.19550781 14.57390625 22.07851562 15.3203125 22.98828125 C15.87460938 23.65214844 16.42890625 24.31601563 17 25 C16.67 25.66 16.34 26.32 16 27 C16.99 27.66 17.98 28.32 19 29 C16.426671 30.2866645 14.49776962 30.16824551 11.625 30.1875 C10.19027344 30.20876953 10.19027344 30.20876953 8.7265625 30.23046875 C5.96989983 29.99745572 4.35052605 29.40920164 2 28 C2.15984375 27.18660156 2.3196875 26.37320313 2.484375 25.53515625 C3.07706075 21.47166684 3.22135435 17.53740798 3.25 13.4375 C3.270625 12.69564453 3.29125 11.95378906 3.3125 11.18945312 C3.34521725 6.59676927 2.86014898 3.80098746 0 0 Z " fill="#04109D" transform="translate(81,80)"/>
<path d="M0 0 C1.27522109 3.54950074 0.72829518 5.30646182 -0.8125 8.6875 C-4.78190248 17.44311342 -5.31970779 25.85988664 -5.25 35.375 C-5.25773437 36.45394531 -5.26546875 37.53289062 -5.2734375 38.64453125 C-5.27085938 39.67707031 -5.26828125 40.70960937 -5.265625 41.7734375 C-5.26336914 42.70591309 -5.26111328 43.63838867 -5.25878906 44.59912109 C-5.15884677 47.26259384 -5.15884677 47.26259384 -3 50 C-2.76171875 52.3125 -2.76171875 52.3125 -2.6875 55 C-2.22745024 61.28177034 -0.28013611 66.62474805 3 72 C5.81509993 74.2773501 5.81509993 74.2773501 9 74 C8.690625 75.1446875 8.690625 75.1446875 8.375 76.3125 C7.66608797 79.21885944 7.66608797 79.21885944 10 82 C9.67 82.99 9.34 83.98 9 85 C-5.04171616 66.22232041 -11.02294463 45.95993671 -7.65429688 22.60302734 C-6.17206184 14.66962285 -3.60732241 7.21464481 0 0 Z " fill="#070D65" transform="translate(31,64)"/>
<path d="M0 0 C0 0.33 0 0.66 0 1 C-5.38115236 2.25143078 -5.38115236 2.25143078 -8.36816406 1.0378418 C-11.25868097 -0.10200861 -13.32800266 -0.24425654 -16.421875 -0.23046875 C-17.44796875 -0.22853516 -18.4740625 -0.22660156 -19.53125 -0.22460938 C-20.5934375 -0.21236328 -21.655625 -0.20011719 -22.75 -0.1875 C-24.32007812 -0.1865332 -24.32007812 -0.1865332 -25.921875 -0.18554688 C-32.01294697 -0.1512846 -37.98044561 0.02770572 -44 1 C-44.33 1.66 -44.66 2.32 -45 3 C-46.78515625 3.7109375 -46.78515625 3.7109375 -49.0625 4.375 C-56.43937421 6.72112613 -62.30365597 9.97346019 -68.3359375 14.828125 C-70 16 -70 16 -72 16 C-72 16.66 -72 17.32 -72 18 C-72.66 18 -73.32 18 -74 18 C-74.33 18.99 -74.66 19.98 -75 21 C-77.4375 23.6875 -77.4375 23.6875 -80 26 C-80.66 26 -81.32 26 -82 26 C-82.20625 26.66 -82.4125 27.32 -82.625 28 C-84.51152871 32.11606263 -87.20567979 35.4587703 -90 39 C-90.33 38.34 -90.66 37.68 -91 37 C-83.17899246 20.1501073 -66.07646578 7.48219062 -49.109375 0.99609375 C-32.56806917 -4.30294267 -16.70264916 -4.44698108 0 0 Z " fill="#040A6D" transform="translate(123,25)"/>
<path d="M0 0 C2.35985758 1.97457471 4.68869546 3.96967758 7 6 C7.57492188 6.495 8.14984375 6.99 8.7421875 7.5 C20.27190631 18.12646895 28.26261027 35.28106862 29.17285156 50.98144531 C29.23170062 54.24008698 29.22396617 57.49107559 29.1875 60.75 C29.18685547 61.85988281 29.18621094 62.96976563 29.18554688 64.11328125 C29.1596531 68.89499921 29.06639363 73.32169659 28 78 C27.67 78 27.34 78 27 78 C26.99589111 77.07888428 26.99178223 76.15776855 26.98754883 75.20874023 C26.96019865 71.71338713 26.91073628 68.21967315 26.84741211 64.72485352 C26.82454889 63.22691264 26.80991271 61.72881825 26.80444336 60.23071289 C26.74044786 45.56589776 24.05235961 28.70525363 13.6875 17.5 C13.130625 17.005 12.57375 16.51 12 16 C12 15.34 12 14.68 12 14 C10.68 14.33 9.36 14.66 8 15 C7.67 13.02 7.34 11.04 7 9 C6.01 8.67 5.02 8.34 4 8 C0 2.62857143 0 2.62857143 0 0 Z " fill="#040A6A" transform="translate(148,39)"/>
<path d="M0 0 C-6.15287734 6.15287734 -20.19780899 6.42993211 -28.5 6.5 C-37.67342675 6.44136573 -46.21900305 4.51849336 -55 2 C-51.79447779 0.96180916 -49.77971783 1.09704738 -46.53515625 1.91796875 C-40.48237484 3.23504511 -34.61326574 3.33113538 -28.4375 3.3125 C-27.36564453 3.32861328 -26.29378906 3.34472656 -25.18945312 3.36132812 C-19.29636194 3.36493246 -14.41323048 2.88242005 -8.92822266 0.66357422 C-5.88510456 -0.38367762 -3.1875203 -0.20345874 0 0 Z " fill="#070D6A" transform="translate(129,171)"/>
<path d="M0 0 C3.14164535 0.73692916 6.10596396 1.55562735 9 3 C10.5625 6.1875 10.5625 6.1875 11 9 C11.66 8.9175 12.32 8.835 13 8.75 C17.89163428 9.15763619 22.11255796 11.13978068 25.625 14.6015625 C26.80874031 16.02070572 27.91304206 17.50543283 29 19 C17.36632284 15.79652368 8.45331549 9.54324438 0 1 C0 0.67 0 0.34 0 0 Z " fill="#060E8D" transform="translate(45,153)"/>
<path d="M0 0 C0.66 0.33 1.32 0.66 2 1 C1.45859375 1.89138672 1.45859375 1.89138672 0.90625 2.80078125 C-2.72186899 9.28100489 -4.11699699 14.58825955 -3 22 C-1.65253476 25.45346148 -1.65253476 25.45346148 0 28 C0 28.66 0 29.32 0 30 C0.53625 30.2475 1.0725 30.495 1.625 30.75 C4.56424252 32.29696975 7.25754408 34.13014369 10 36 C9.01 36.495 9.01 36.495 8 37 C2.73748701 35.01193954 0.31916664 32.33335645 -3 28 C-3.66 27.34 -4.32 26.68 -5 26 C-8.05110437 18.80003943 -6.66021183 12.12150094 -4 5 C-1.8125 1.75 -1.8125 1.75 0 0 Z " fill="#02077C" transform="translate(93,68)"/>
<path d="M0 0 C2.97 0 5.94 0 9 0 C8.71125 0.845625 8.4225 1.69125 8.125 2.5625 C7.65200356 5.90686083 7.65200356 5.90686083 9.3046875 7.81640625 C10.41983206 9.00606508 11.56834752 10.16543759 12.75 11.2890625 C14 13 14 13 13.6875 15.2109375 C13.460625 15.80132812 13.23375 16.39171875 13 17 C12.46375 16.0925 11.9275 15.185 11.375 14.25 C9.16580443 10.87263268 6.35417207 9.21070432 3 7 C3 6.01 3 5.02 3 4 C1.68 3.67 0.36 3.34 -1 3 C-0.67 2.01 -0.34 1.02 0 0 Z " fill="#030F99" transform="translate(128,89)"/>
<path d="M0 0 C3.87853276 0.62876032 7.12174934 1.79813032 10.6875 3.4375 C12.11642578 4.08525391 12.11642578 4.08525391 13.57421875 4.74609375 C16 6 16 6 18 8 C18.3125 11 18.3125 11 18 14 C15 16 15 16 11.5 15.875 C8 15 8 15 6 13.1875 C5 11 5 11 5.3125 8.75 C5.539375 8.1725 5.76625 7.595 6 7 C6.99 8.98 7.98 10.96 9 13 C10.98 13 12.96 13 15 13 C15.33 11.68 15.66 10.36 16 9 C10.36264929 5.5635133 10.36264929 5.5635133 4 4 C4 3.34 4 2.68 4 2 C2.68 1.34 1.36 0.68 0 0 Z " fill="#050B66" transform="translate(103,105)"/>
<path d="M0 0 C0.66 0.33 1.32 0.66 2 1 C-7.22551253 12.89066059 -7.22551253 12.89066059 -13 16 C-13.33 15.01 -13.66 14.02 -14 13 C-13.236875 12.649375 -12.47375 12.29875 -11.6875 11.9375 C-8.69824249 10.14199303 -8.69824249 10.14199303 -7.5625 6.5 C-6 3 -6 3 -2.9375 1 C-1.968125 0.67 -0.99875 0.34 0 0 Z " fill="#050D81" transform="translate(161,144)"/>
<path d="M0 0 C0.495 1.485 0.495 1.485 1 3 C-4.87590017 6.89984122 -11.00097451 6.55172636 -17.875 6.6875 C-19.62296875 6.73874023 -19.62296875 6.73874023 -21.40625 6.79101562 C-24.27073718 6.87319354 -27.13492985 6.94244421 -30 7 C-30 6.34 -30 5.68 -30 5 C-31.2065625 4.814375 -31.2065625 4.814375 -32.4375 4.625 C-33.283125 4.41875 -34.12875 4.2125 -35 4 C-35.33 3.34 -35.66 2.68 -36 2 C-34.87464844 2.32226562 -33.74929687 2.64453125 -32.58984375 2.9765625 C-27.88984234 4.1450997 -23.39110194 4.3827529 -18.5625 4.375 C-17.72936279 4.37628906 -16.89622559 4.37757813 -16.0378418 4.37890625 C-9.83056557 4.2718318 -5.3830701 3.25015553 0 0 Z " fill="#060F68" transform="translate(134,132)"/>
<path d="M0 0 C0.99 0.66 1.98 1.32 3 2 C4.11090562 8.46939157 3.30751051 15.28937638 0 21 C-1.5579474 22.90106677 -3.13001463 24.38271535 -5 26 C-5.66 25.67 -6.32 25.34 -7 25 C-6.57847656 24.45730469 -6.15695313 23.91460937 -5.72265625 23.35546875 C-5.17480469 22.64003906 -4.62695312 21.92460938 -4.0625 21.1875 C-3.51722656 20.47980469 -2.97195312 19.77210937 -2.41015625 19.04296875 C0.3473505 15.04802129 0.10580471 11.53271289 0.0625 6.8125 C0.05347656 5.54019531 0.04445312 4.26789063 0.03515625 2.95703125 C0.02355469 1.98121094 0.01195312 1.00539063 0 0 Z " fill="#060E72" transform="translate(142,106)"/>
<path d="M0 0 C2.31 0 4.62 0 7 0 C8.35439668 2.70879335 8.06501451 5.00933268 8 8 C2.25 7.125 2.25 7.125 0 6 C0 4.02 0 2.04 0 0 Z " fill="#040F9A" transform="translate(113,80)"/>
<path d="M0 0 C2.36068151 1.96956268 4.68798928 3.97353642 7 6 C7.60585937 6.5259375 8.21171875 7.051875 8.8359375 7.59375 C10.5 9.125 10.5 9.125 13 12 C12.65625 14.1796875 12.65625 14.1796875 12 16 C12 15.34 12 14.68 12 14 C10.68 14.33 9.36 14.66 8 15 C7.67 13.02 7.34 11.04 7 9 C6.01 8.67 5.02 8.34 4 8 C0 2.62857143 0 2.62857143 0 0 Z " fill="#030A7B" transform="translate(148,39)"/>
<path d="M0 0 C0.93972656 0.49113281 1.87945312 0.98226562 2.84765625 1.48828125 C7.65978722 3.5506231 12.28198672 3.33225523 17.4375 3.1875 C18.82098633 3.16719727 18.82098633 3.16719727 20.23242188 3.14648438 C22.48890383 3.11140953 24.74413226 3.06226387 27 3 C27 3.33 27 3.66 27 4 C19.41 4.33 11.82 4.66 4 5 C4 4.34 4 3.68 4 3 C3.01 3.33 2.02 3.66 1 4 C0.34 3.67 -0.32 3.34 -1 3 C-0.67 2.01 -0.34 1.02 0 0 Z " fill="#020E8C" transform="translate(98,135)"/>
<path d="M0 0 C0.33 0 0.66 0 1 0 C1.01981934 0.62044189 1.03963867 1.24088379 1.06005859 1.88012695 C1.15531845 4.69134537 1.26499302 7.50182166 1.375 10.3125 C1.4059375 11.28896484 1.436875 12.26542969 1.46875 13.27148438 C1.50742187 14.20927734 1.54609375 15.14707031 1.5859375 16.11328125 C1.6173584 16.97735596 1.6487793 17.84143066 1.68115234 18.73168945 C1.87188037 21.27742445 1.87188037 21.27742445 4 24 C4.125 26.6875 4.125 26.6875 4 29 C3.34 29 2.68 29 2 29 C-0.32891212 25.50663182 -0.23551143 24.13992135 -0.1953125 20.01953125 C-0.18886719 18.85615234 -0.18242187 17.69277344 -0.17578125 16.49414062 C-0.15902344 15.27919922 -0.14226563 14.06425781 -0.125 12.8125 C-0.11597656 11.58595703 -0.10695313 10.35941406 -0.09765625 9.09570312 C-0.07406017 6.06360705 -0.04113841 3.03190062 0 0 Z " fill="#040C81" transform="translate(24,90)"/>
<path d="M0 0 C0.928125 0.33 1.85625 0.66 2.8125 1 C5.92029291 2.14967004 5.92029291 2.14967004 9 2 C12.82921605 3.35875408 14.63029503 5.78397182 17 9 C10.75029999 7.22057153 5.21510863 4.95040926 0 1 C0 0.67 0 0.34 0 0 Z " fill="#0A106B" transform="translate(57,163)"/>
<path d="M0 0 C0.99 0.33 1.98 0.66 3 1 C-12.39726027 11 -12.39726027 11 -16 11 C-16 10.34 -16 9.68 -16 9 C-15.02160156 8.52820313 -15.02160156 8.52820313 -14.0234375 8.046875 C-8.10137083 5.16371647 -8.10137083 5.16371647 -2.5625 1.625 C-1.2940625 0.820625 -1.2940625 0.820625 0 0 Z " fill="#050C6D" transform="translate(145,160)"/>
<path d="M0 0 C0.66 0.33 1.32 0.66 2 1 C1.47599609 1.90878906 1.47599609 1.90878906 0.94140625 2.8359375 C-2.38124943 8.95414202 -3.83717448 14.0429098 -4 21 C-4.33 21 -4.66 21 -5 21 C-5.31335705 13.93205776 -5.53458302 8.25349303 -2 2 C-1.34 1.34 -0.68 0.68 0 0 Z " fill="#060B6C" transform="translate(93,68)"/>
<path d="M0 0 C4 0 4 0 6 1 C5.79375 1.763125 5.5875 2.52625 5.375 3.3125 C4.66608797 6.21885944 4.66608797 6.21885944 7 9 C6.67 9.99 6.34 10.98 6 12 C2.82781157 8.37464179 1.57097403 4.48849722 0 0 Z " fill="#050C83" transform="translate(34,137)"/>
<path d="M0 0 C4.02084199 0.85056273 6.48697028 1.51262176 9.5 4.375 C11 7 11 7 10.75 9.3125 C10.5025 9.869375 10.255 10.42625 10 11 C9.46375 10.0925 8.9275 9.185 8.375 8.25 C6.16271608 4.88382698 3.42841736 3.10380156 0 1 C0 0.67 0 0.34 0 0 Z " fill="#050B65" transform="translate(131,95)"/>
<path d="M0 0 C0.33 0 0.66 0 1 0 C2.43206757 8.88572047 2.43206757 8.88572047 0.8125 13.0625 C-1.1457767 15.15583027 -2.18202494 15.70848534 -5 16 C-4.67 15.01 -4.34 14.02 -4 13 C-2.68 12.67 -1.36 12.34 0 12 C0 8.04 0 4.08 0 0 Z " fill="#070E69" transform="translate(62,89)"/>
<path d="M0 0 C0.33 0.66 0.66 1.32 1 2 C2.32338632 2.68620031 3.65949948 3.34786461 5 4 C7.01182457 5.31542376 9.01399663 6.6459068 11 8 C10.01 8.495 10.01 8.495 9 9 C5.50467915 7.51262943 2.31699424 6.08932566 0 3 C0 2.01 0 1.02 0 0 Z " fill="#04086E" transform="translate(92,96)"/>
<path d="M0 0 C0.33 0.99 0.66 1.98 1 3 C-0.96466413 4.06775224 -2.96855359 5.06553465 -5 6 C-5.66 5.67 -6.32 5.34 -7 5 C-4.87219421 2.65941363 -2.88437779 1.29299694 0 0 Z " fill="#040976" transform="translate(134,132)"/>
<path d="M0 0 C0.99 0.33 1.98 0.66 3 1 C0.03 3.475 0.03 3.475 -3 6 C-3.66 5.01 -4.32 4.02 -5 3 C-2.6875 1.4375 -2.6875 1.4375 0 0 Z " fill="#030868" transform="translate(152,154)"/>
<path d="M0 0 C3.76488042 1.72154788 6.15063897 3.99234114 9 7 C6 7 6 7 4.39453125 5.46875 C3.87246094 4.8190625 3.35039063 4.169375 2.8125 3.5 C2.28269531 2.8503125 1.75289062 2.200625 1.20703125 1.53125 C0.80871094 1.0259375 0.41039062 0.520625 0 0 Z " fill="#060A6B" transform="translate(45,153)"/>
<path d="M0 0 C3.7952131 1.49097658 5.61042731 3.75700849 8 7 C5.6875 6.875 5.6875 6.875 3 6 C1.1875 2.9375 1.1875 2.9375 0 0 Z " fill="#030C78" transform="translate(66,165)"/>
<path d="M0 0 C1 3 1 3 0.0625 5.1875 C-0.4634375 6.0846875 -0.4634375 6.0846875 -1 7 C-2.32 6.34 -3.64 5.68 -5 5 C-3.625 3.5 -3.625 3.5 -2 2 C-1.34 2 -0.68 2 0 2 C0 1.34 0 0.68 0 0 Z " fill="#03085B" transform="translate(81,105)"/>
<path d="M0 0 C0.33 0.66 0.66 1.32 1 2 C-3.75 6.875 -3.75 6.875 -6 8 C-5.65120368 4.74456771 -4.97866739 3.98126893 -2.4375 1.75 C-1.633125 1.1725 -0.82875 0.595 0 0 Z " fill="#060F92" transform="translate(56,37)"/>
</svg>
